<?xml version="1.0" standalone="no"?>
<!DOCTYPE svg PUBLIC "-//W3C//DTD SVG 1.1//EN" "http://www.w3.org/Graphics/SVG/1.1/DTD/svg11.dtd" >
<svg xmlns="http://www.w3.org/2000/svg" xmlns:xlink="http://www.w3.org/1999/xlink" version="1.1">
<metadata></metadata>
<defs>
<font id="keralalite" horiz-adv-x="2048" >
<font-face units-per-em="2048" ascent="1638" descent="-410" />
<missing-glyph horiz-adv-x="1024" />
<glyph horiz-adv-x="0" />
<glyph unicode="&#xd;" horiz-adv-x="1024" />
<glyph horiz-adv-x="2369" />
<glyph unicode=" "  horiz-adv-x="1024" />
<glyph unicode="&#x09;" horiz-adv-x="1024" />
<glyph unicode="&#xa0;" horiz-adv-x="1024" />
<glyph unicode="!" horiz-adv-x="454" d="M209 63q0 39 27.5 67t66.5 28t66.5 -28t27.5 -67q0 -41 -26.5 -67.5t-67.5 -26.5q-37 0 -65.5 27t-28.5 67zM221 850q0 78 23.5 112.5t60.5 34.5q31 0 51.5 -33.5t28.5 -113.5q2 -12 2 -37q0 -29 -35 -340q-18 -164 -18 -260l-62 39q0 115 -25.5 309.5t-25.5 288.5z" />
<glyph unicode="&#x22;" horiz-adv-x="493" d="M219 811q84 47 129 98.5t45 100.5q0 39 -18 53q-25 -20 -60 -21q-37 0 -65.5 25t-28.5 63q0 39 29 70t69 31q63 0 105.5 -51.5t42.5 -139.5q0 -82 -70 -157q-61 -68 -135 -90z" />
<glyph unicode="#" horiz-adv-x="872" d="M176 360v66h660v-66h-660zM412 176q0 39 27.5 66.5t66.5 27.5t66.5 -27.5t27.5 -66.5q0 -41 -26.5 -67.5t-67.5 -26.5q-37 0 -65.5 26.5t-28.5 67.5zM412 610q0 39 27.5 67t66.5 28t66.5 -28t27.5 -67q0 -41 -26.5 -67.5t-67.5 -26.5q-37 0 -65.5 26.5t-28.5 67.5z" />
<glyph unicode="$" horiz-adv-x="872" d="M176 111l283 282l-283 283l47 47l283 -285l282 283l48 -47l-283 -281l281 -282l-46 -48l-282 283l-283 -283z" />
<glyph unicode="%" horiz-adv-x="1138" d="M141 713q0 88 58 153q66 74 166 74q98 0 163 -74q60 -67 60 -153q0 -100 -64.5 -165t-158.5 -65t-159 62.5t-65 167.5zM254 711q0 -186 111 -187q111 0 110 187q0 188 -110 188q-111 0 -111 -188zM297 -63l594 1003h88l-594 -1003h-88zM698 166q0 88 58 153q66 74 166 74 q98 0 163 -74q60 -67 60 -153q0 -100 -64.5 -164.5t-158.5 -64.5t-159 62t-65 167zM811 164q0 -186 111 -187q111 0 110 187q0 188 -110 188q-111 0 -111 -188z" />
<glyph unicode="&#x26;" horiz-adv-x="796" d="M141 688q0 70 78 70q10 0 100.5 -24.5t118.5 -24.5q0 16 -23.5 124.5t-23.5 145.5q0 63 18.5 94t51.5 27h8q70 6 70 -121q0 -43 -23.5 -151.5t-23.5 -118.5q25 0 87 15t132 34q78 0 77 -70q0 -29 -19 -48t-52 -19q-70 18 -129.5 32.5t-95.5 14.5q0 -49 22.5 -129 t36.5 -103q-16 -102 -44 -384.5t-28 -354.5h-28q0 90 -26 346t-46 393q16 23 37.5 101.5t21.5 130.5q-45 0 -104.5 -15.5t-120.5 -31.5q-31 0 -51.5 18t-20.5 49z" />
<glyph unicode="'" horiz-adv-x="493" d="M205 983q0 82 69 158q61 68 136 90l43 -19q-84 -47 -129 -98t-45 -100q0 -39 18 -53q25 20 59 20q37 0 66 -24.5t29 -63.5t-29 -69.5t-70 -30.5q-63 0 -105 51t-42 139z" />
<glyph unicode="(" horiz-adv-x="661" d="M168 455q0 221 137 454q129 219 299 322h47q-186 -186 -265 -372.5t-79 -403.5q0 -221 77 -402.5t267 -374.5h-47q-166 100 -297 322q-139 236 -139 455z" />
<glyph unicode=")" horiz-adv-x="661" d="M147 -322q186 186 269 381q76 178 76 396q0 221 -74 395q-80 188 -271 381h48q166 -100 297 -322q139 -236 139 -454q0 -221 -137 -455q-129 -219 -299 -322h-48z" />
<glyph unicode="*" horiz-adv-x="757" d="M168 913q0 20 16.5 32.5t36.5 12.5q31 0 89.5 -42t123.5 -111q-14 57 -27.5 113.5t-13.5 91.5q0 90 58 90q55 0 55 -90q0 -37 -11.5 -87.5t-33.5 -117.5q74 74 130 113.5t89 39.5q53 0 53 -45q0 -55 -82 -82q-31 -10 -87 -25t-83 -22v-8q139 -25 192.5 -53.5t53.5 -73.5 q0 -16 -18.5 -34.5t-36.5 -18.5q-47 0 -127 86l-76 74l16 -82q20 -94 21 -133q0 -27 -15.5 -51.5t-39.5 -24.5q-25 0 -41.5 23.5t-16.5 52.5q0 39 15 102q6 27 30 113l-82 -74q-80 -86 -127 -86q-14 0 -34.5 18.5t-20.5 34.5q0 43 54.5 73t191.5 54v8q-45 10 -92 23.5 t-78 23.5q-82 27 -82 82z" />
<glyph unicode="+" horiz-adv-x="872" d="M176 360v66h297v297h66v-297h297v-66h-297v-297h-66v297h-297z" />
<glyph unicode="," horiz-adv-x="378" d="M131 -262q84 47 129 98t45 101q0 39 -18 53q-25 -20 -60 -21q-37 0 -65.5 24.5t-28.5 63.5t28.5 70t69.5 31q63 0 105.5 -51.5t42.5 -139.5q0 -82 -70 -157q-61 -68 -135 -91z" />
<glyph unicode="-" />
<glyph unicode="." horiz-adv-x="378" d="M133 63q0 39 27.5 67t66.5 28t67 -28t28 -67q0 -41 -27 -67.5t-68 -26.5q-37 0 -65.5 27t-28.5 67z" />
<glyph unicode="/" horiz-adv-x="757" d="M176 -393l463 1546h84l-463 -1546h-84z" />
<glyph unicode="0" horiz-adv-x="757" d="M139 440q0 172 82 305q90 147 230 148q139 0 229 -145q82 -134 82 -308q0 -207 -89 -332.5t-222 -125.5q-131 0 -221.5 128t-90.5 330zM299 436q0 -373 152 -373q80 0 115.5 92.5t35.5 280.5q0 375 -151 375q-152 0 -152 -375z" />
<glyph unicode="1" horiz-adv-x="757" d="M219 612v109q84 37 123 59q68 39 115 82h108v-862h-159v723q-45 -31 -113 -70q-27 -14 -74 -41z" />
<glyph unicode="2" horiz-adv-x="757" d="M154 0v76q211 195 301 309q111 141 110 246q0 168 -147 168q-61 0 -102.5 -55.5t-41.5 -116.5h-98q0 117 73 191.5t191 74.5q135 0 210 -71.5t75 -186.5q0 -78 -61 -164q-94 -133 -371 -377h442v-94h-581z" />
<glyph unicode="3" horiz-adv-x="757" d="M145 231h113q0 -63 46 -115.5t114 -52.5q63 0 107 50.5t44 117.5q0 84 -44 134.5t-122 50.5h-65v82h72q63 0 107 40t44 107q0 80 -39 123t-108 43q-57 0 -100.5 -43t-51.5 -115h-98q0 119 90 185q76 55 170 55q117 0 201 -69.5t84 -170.5q0 -74 -45 -126t-127 -68l4 -8 q188 -35 188 -230q0 -104 -78 -171.5t-211 -67.5q-125 0 -210 72.5t-85 176.5z" />
<glyph unicode="4" horiz-adv-x="757" d="M119 186v88l399 588h117v-581h133v-95h-133v-186h-160v186h-356zM209 281h266v393z" />
<glyph unicode="5" horiz-adv-x="757" d="M164 205h112q0 -66 44.5 -104t109.5 -38q61 0 104.5 55.5t43.5 155.5t-44.5 161t-117.5 61q-59 0 -105.5 -30t-54.5 -77h-76l37 473h475v-94h-352l-29 -227q80 37 152 37q133 0 203.5 -68t70.5 -211q0 -147 -77.5 -232t-229.5 -85q-129 0 -197.5 64.5t-68.5 158.5z" />
<glyph unicode="6" horiz-adv-x="757" d="M143 420q0 254 105 379q80 94 194 94q102 0 173 -54.5t92 -152.5l-113 -10q-14 61 -47 92t-80 31q-88 0 -132 -86t-44 -230q33 41 80 60.5t104 19.5q129 0 204 -75.5t75 -215.5q0 -137 -81 -213.5t-218 -76.5q-145 0 -228.5 115.5t-83.5 322.5zM303 272q0 -109 43 -159 t109 -50q68 0 109.5 49.5t41.5 159.5q0 102 -44 155.5t-107 53.5q-66 0 -109 -52.5t-43 -156.5z" />
<glyph unicode="7" horiz-adv-x="757" d="M172 768v94h559v-94l-336 -768h-176l367 768h-414z" />
<glyph unicode="8" horiz-adv-x="757" d="M164 242q0 94 55 153q43 47 119 68l8 4q-68 16 -113 61q-53 51 -53 121q0 102 66 168q74 76 205 76t200.5 -72t69.5 -172q0 -70 -48 -117t-118 -65l4 -4q74 -20 121 -68q57 -59 57 -153q0 -109 -77.5 -184.5t-208.5 -75.5t-209 75.5t-78 184.5zM324 246 q0 -84 34.5 -133.5t92.5 -49.5q55 0 91 50.5t36 132.5q0 74 -35 123t-92 49t-92 -48t-35 -124zM328 649q0 -70 35.5 -109.5t87.5 -39.5q49 0 85.5 41t36.5 108q0 76 -34.5 119t-87.5 43q-51 0 -87 -44t-36 -118z" />
<glyph unicode="9" horiz-adv-x="757" d="M143 602q0 129 79 210t220 81q150 0 231 -106.5t81 -331.5q0 -254 -105 -379q-80 -94 -194 -94q-102 0 -173 54t-92 152l113 11q14 -61 47 -92t80 -31q88 0 132 86t44 229q-33 -41 -80 -60.5t-104 -19.5q-123 0 -201 78t-78 213zM291 602q0 -102 44 -155.5t107 -53.5 q66 0 109 52.5t43 156.5q0 109 -43 159t-109 50q-68 0 -106 -45q-45 -53 -45 -164z" />
<glyph unicode=":" horiz-adv-x="378" d="M133 63q0 39 27.5 67t66.5 28t67 -28t28 -67q0 -41 -27 -67.5t-68 -26.5q-37 0 -65.5 27t-28.5 67zM133 500q0 39 27.5 66.5t66.5 27.5t67 -27.5t28 -66.5q0 -41 -27 -67.5t-68 -26.5q-37 0 -65.5 26.5t-28.5 67.5z" />
<glyph unicode=";" horiz-adv-x="378" d="M131 -262q84 47 129 98t45 101q0 39 -18 53q-25 -20 -60 -21q-37 0 -65.5 24.5t-28.5 63.5t28.5 70t69.5 31q63 0 105.5 -51.5t42.5 -139.5q0 -82 -70 -157q-61 -68 -135 -91zM133 500q0 39 27.5 66.5t66.5 27.5t67 -27.5t28 -66.5q0 -41 -27 -67.5t-68 -26.5 q-37 0 -65.5 26.5t-28.5 67.5z" />
<glyph unicode="&#x3c;" horiz-adv-x="819" d="M-6 422l594 -369l69 68l-495 299l495 299l-69 67z" />
<glyph unicode="=" horiz-adv-x="872" d="M176 250v65h660v-65h-660zM176 471v66h660v-66h-660z" />
<glyph unicode="&#x3e;" horiz-adv-x="819" d="M150 121l495 299l-495 299l69 67l594 -368l-594 -365z" />
<glyph unicode="?" horiz-adv-x="681" d="M190 784q0 96 62.5 154.5t161.5 58.5q111 0 181.5 -61.5t70.5 -179.5q0 -100 -99.5 -201.5t-201.5 -204.5q0 -35 13 -64.5t46 -60.5l-6 -10l-78 29q-41 41 -57.5 79.5t-16.5 73.5q0 72 163 193t163 205q0 68 -47 102.5t-115 34.5q-49 0 -86 -24.5t-41 -73.5 q49 0 68.5 -21.5t19.5 -60.5q0 -35 -27.5 -60.5t-60.5 -25.5q-49 0 -81 31.5t-32 86.5zM309 63q0 39 28 67t66 28q39 0 67 -28t28 -67q0 -41 -27 -67.5t-68 -26.5q-37 0 -65.5 27t-28.5 67z" />
<glyph unicode="@" />
<glyph unicode="A" horiz-adv-x="2056" d="M143 258q0 109 68 170t195 61h131q0 152 72.5 262.5t197.5 110.5q127 0 205 -101.5t94 -271.5h108q37 180 140.5 276.5t242.5 96.5q195 0 326 -139q125 -131 125 -305q0 -127 -51 -228q-57 -111 -189 -221l-94 43q82 72 128 172.5t46 200.5q0 160 -97 265.5t-226 105.5 q-98 0 -180 -76t-107 -191h104q147 0 213 -64.5t66 -195.5q0 -115 -62.5 -181t-160.5 -66q-92 0 -166 101t-74 259l4 82h-90q0 -217 -96 -338q-84 -104 -199 -104q-74 0 -127 30q-63 37 -106 123q-29 -74 -82 -113.5t-107 -39.5q-90 0 -164 63q-88 76 -88 213zM283 268 q0 -74 37.5 -133t95.5 -59q57 0 89 51t32 133v164h-66q-96 0 -142 -42t-46 -114zM598 424q0 -176 49 -262t129 -86q96 0 146.5 95t50.5 253h-375zM598 489h375q0 111 -54.5 189t-138.5 78q-76 0 -125 -64q-57 -72 -57 -203zM1260 328q0 -92 39.5 -166t97.5 -74q63 0 100 50 t37 104q0 80 -41 131t-107 51h-118q-4 -16 -6 -48t-2 -48z" />
<glyph unicode="B" horiz-adv-x="2236" d="M147 336q0 231 136 371q151 155 438 155h4q53 0 144.5 -15.5t140.5 -35.5q51 29 118.5 40t143.5 11q70 0 163 -43t130 -106q43 70 118.5 109.5t180.5 39.5q127 0 220 -69.5t93 -151.5q0 -66 -34 -120t-91 -85q78 -18 127 -71.5t49 -118.5q0 -102 -93 -183t-239 -81 q-49 0 -93 5t-64 13l-25 111q84 -47 144 -48q84 0 147 48.5t63 119.5q0 78 -51 121t-153 43h-119v66q123 0 197.5 39t74.5 112q0 63 -52 109.5t-136 46.5q-86 0 -150 -35q-78 -43 -77 -117v-616h-160v524q0 102 -78 173t-164 71l-61 -2q55 -29 91 -81t36 -110 q0 -55 -33 -102t-84 -76q147 -45 147 -174q0 -84 -61 -155q-74 -86 -191 -86q-129 0 -216 109.5t-87 268.5q0 119 42 214.5t139 170.5q-37 10 -103.5 22.5t-116.5 12.5q-217 0 -350 -118q-125 -113 -143 -291l6 -6q45 76 82 102q47 37 121 37q92 0 159.5 -86t67.5 -189 q0 -115 -62.5 -181t-160.5 -66q-135 0 -209 110q-66 99 -66 244zM242 254q0 -61 41 -113.5t98 -52.5q63 0 100 50t37 104q0 70 -36 119t-97 49t-102 -45t-41 -111zM803 360q0 -109 56 -190.5t140 -81.5q55 0 96.5 39t41.5 90q0 53 -46.5 91t-113.5 38h-49v66h47q57 0 104 43 t47 98q0 45 -39.5 95t-97.5 73q-74 -37 -127 -131q-59 -105 -59 -230z" />
<glyph unicode="C" horiz-adv-x="1509" d="M147 637q0 84 75 154.5t179 70.5q66 0 114 -36.5t77 -116.5q33 68 91 110.5t132 42.5q127 0 205 -101.5t94 -271.5h127q109 0 178 -59q82 -70 82 -203q0 -100 -64.5 -172.5t-158.5 -72.5q-27 0 -62.5 9t-58.5 25l-10 93q20 -14 36.5 -22.5t39.5 -8.5q55 0 97 43t42 129 q0 82 -44 128t-122 46h-76q0 -217 -96 -338q-84 -104 -199 -104q-74 0 -127 30q-63 37 -106 123q-29 -74 -82 -113.5t-107 -39.5q-90 0 -163 63q-88 76 -88 213q0 154 127 209q-55 20 -91 59q-41 47 -41 111zM287 631q0 -55 55 -98.5t133 -43.5h70v76q0 106 -31 148.5 t-90 42.5q-49 0 -93 -38t-44 -87zM291 268q0 -74 38 -133t95 -59t89 51t32 133v164h-66q-96 0 -142 -42t-46 -114zM606 424q0 -176 49.5 -262t128.5 -86q96 0 146.5 95t50.5 253h-375zM606 489h375q0 111 -54.5 189t-138.5 78q-76 0 -124 -64q-57 -72 -58 -203z" />
<glyph unicode="D" horiz-adv-x="1134" d="M190 416q0 186 130.5 316t316.5 130t316 -130t130 -316t-130 -316.5t-316 -130.5t-316.5 130.5t-130.5 316.5z" />
<glyph unicode="E" horiz-adv-x="3125" d="M147 336q0 221 134.5 373.5t355.5 152.5q100 0 176 -40t117 -109q33 63 106.5 106t151.5 43t123 -14t92 -43q59 31 116.5 44t120.5 13q100 0 177 -45t129 -129q29 70 109.5 122t168.5 52q61 0 111.5 -13t91.5 -44q39 23 100.5 40t122.5 17q209 0 342 -145 q125 -135 125 -322q0 -102 -62.5 -213.5t-172.5 -199.5l-95 32q80 80 121 160q49 94 49 197q0 172 -118 295q-110 114 -246 114h-2q-31 0 -56.5 -4t-44.5 -16q109 -92 164 -211q47 -102 47 -203q0 -141 -75 -248q-83 -116 -216 -116h-2q-106 0 -188 103t-82 251 q0 113 57.5 222.5t143.5 174.5q-20 12 -51 17.5t-64 5.5q-106 0 -168 -49q-72 -57 -71 -175v-532h-160v510q0 113 -68.5 185.5t-175.5 72.5q-80 0 -111 -14q104 -86 160 -207q47 -102 47 -201q0 -150 -80.5 -257t-199.5 -107q-115 0 -192 111.5t-77 236.5q0 135 62 248 q45 84 125 155q-27 14 -58.5 18.5t-68.5 4.5q-84 0 -152.5 -49.5t-68.5 -128.5v-578h-160v578q0 74 -66.5 126t-171.5 52q-156 0 -249 -104.5t-111 -280.5l6 -6q45 76 82 102q47 37 121 37q92 0 159.5 -86t67.5 -189q0 -115 -62.5 -181t-160.5 -66q-135 0 -209 110 q-66 98 -66 244zM242 254q0 -61 41 -113.5t98 -52.5q63 0 100 50t37 104q0 70 -36 119t-97 49t-102 -45t-41 -111zM1190 334q0 -92 52 -163t116 -71q72 0 126 72t54 176q0 94 -33 178q-43 111 -135 176q-88 -57 -134 -162.5t-46 -205.5zM2200 334q0 -106 61 -174 q55 -59 121 -60q78 0 129 73t51 175q0 106 -40 192.5t-128 161.5q-96 -78 -145 -175t-49 -193z" />
<glyph unicode="F" horiz-adv-x="2369" d="M147 336q0 221 134.5 373.5t355.5 152.5q199 0 293 -149q18 53 74 96q68 53 139 53q59 0 105 -16.5t79 -40.5q31 23 81 40t99 17q152 0 254.5 -116.5t102.5 -280.5q0 -109 -46 -212t-128 -187h508l-17 782h160l16 -848h-1294v66h477q74 61 125 162.5t51 197.5 q0 147 -66.5 244.5t-170.5 97.5q-23 0 -47.5 -2t-36.5 -8q74 -74 111.5 -154t37.5 -192q0 -119 -76.5 -204t-179.5 -85q-92 0 -154.5 74.5t-62.5 187.5q0 102 37 180t137 170q-23 12 -52.5 22.5t-55.5 10.5q-63 0 -109 -35q-61 -47 -61 -139v-594h-160v578q0 74 -66.5 126 t-171.5 52q-156 0 -249 -104.5t-111 -280.5l6 -6q45 76 82 102q47 37 121 37q92 0 159.5 -86t67.5 -189q0 -115 -62.5 -181t-160.5 -66q-135 0 -209 110q-66 98 -66 244zM242 254q0 -61 41 -113.5t98 -52.5q63 0 100 50t37 104q0 70 -36 119t-97 49t-102 -45t-41 -111z M1133 432q0 -78 42 -134t95 -56q66 0 106.5 56t40.5 142q0 78 -33.5 148.5t-89.5 113.5q-55 -25 -108 -109.5t-53 -160.5z" />
<glyph unicode="G" horiz-adv-x="937" d="M147 -178q248 -88 365 -88q96 0 160 39q71 44 71 116q0 55 -38.5 83t-133.5 28h-419v66h426q78 0 143 55t65 135q0 57 -39.5 78.5t-158.5 21.5q-41 0 -105.5 -5t-85.5 -5q-113 0 -181.5 58.5t-68.5 154.5q0 127 107.5 215t280.5 88q102 0 210.5 -40t167.5 -97l-51 -51 q-55 49 -140 77.5t-169 28.5q-123 0 -201 -60.5t-78 -135.5q0 -41 40 -65.5t98 -24.5q37 0 86 2t108 6q160 0 240 -57.5t80 -163.5q0 -94 -41 -165t-127 -110q66 -18 105.5 -68.5t39.5 -107.5q0 -88 -92 -145.5t-231 -57.5q-78 0 -197 24.5t-236 63.5v107z" />
<glyph unicode="H" horiz-adv-x="2125" d="M147 336q0 221 134.5 373.5t355.5 152.5q98 0 176 -40t119 -109q43 68 111.5 108.5t148.5 40.5q233 0 295 -139q35 63 105.5 101t152.5 38q154 0 261.5 -126t107.5 -312q0 -102 -50 -195q-66 -125 -227 -247l-84 38q100 104 150.5 206t50.5 194q0 168 -90 266 q-76 82 -160 82q-72 0 -126 -43t-54 -113v-612h-160v530q0 104 -65.5 166t-153.5 62q-78 0 -128 -40t-50 -100v-618h-160v578q0 74 -66.5 126t-171.5 52q-156 0 -249 -104.5t-111 -280.5l6 -6q45 76 82 102q47 37 121 37q92 0 159.5 -86t67.5 -189q0 -115 -62.5 -181 t-160.5 -66q-135 0 -209 110q-66 98 -66 244zM242 254q0 -61 41 -113.5t98 -52.5q63 0 100 50t37 104q0 70 -36 119t-97 49t-102 -45t-41 -111zM754 -367q0 143 91 238.5t218 95.5q72 0 139 -33q55 -27 92 -67q82 100 207 100q66 0 112 -26.5t73 -69.5q29 45 75.5 70.5 t96.5 25.5q100 0 180 -77.5t80 -200.5q0 -82 -50.5 -165t-130.5 -142l-59 28q141 129 141 264q0 102 -51 159.5t-131 57.5q-61 0 -89 -27.5t-28 -70.5v-395h-139v375q0 53 -34 84.5t-85 31.5q-63 0 -98 -30.5t-35 -83.5v-377h-139v362q0 47 -47 86t-103 39 q-84 0 -154.5 -65.5t-70.5 -143.5l6 -4q16 25 47 42.5t66 17.5q72 0 116 -54.5t44 -130.5q0 -82 -40 -126t-110 -44q-80 0 -135 74t-55 182zM831 -440q0 -51 29 -76t68 -25q35 0 57.5 24.5t22.5 67.5t-26 75t-67 32q-84 0 -84 -98z" />
<glyph unicode="I" horiz-adv-x="2244" d="M147 336q0 221 134.5 373.5t355.5 152.5q98 0 176 -40t119 -109q43 68 111.5 108.5t148.5 40.5q106 0 192 -57q74 -49 107 -117q59 86 160.5 130t212.5 44q150 0 256 -77.5t106 -186.5q0 -57 -42 -101t-109 -44q-47 0 -100.5 13t-69.5 13q-47 0 -84 -26.5t-37 -63.5 q0 -74 145 -74q35 2 49.5 4.5t26.5 2.5h47q78 0 125 -33q59 -41 59 -121q0 -88 -73.5 -143.5t-206.5 -55.5q-76 0 -164 8.5t-158 24.5l-18 100q74 -23 138.5 -31t133.5 -8q88 0 138.5 26t50.5 73q0 41 -36 59.5t-128 18.5q-139 0 -214 34.5t-75 110.5q0 74 47 121t129 47 q39 0 104.5 -8t86.5 -8q31 0 53 24.5t22 54.5q0 61 -63.5 106.5t-161.5 45.5q-166 0 -254 -74q-63 -53 -63 -106v-588h-160v530q0 102 -65.5 164t-153.5 62q-78 0 -128 -40t-50 -100v-616h-160v578q0 74 -66.5 126t-171.5 52q-156 0 -249 -104.5t-111 -280.5l6 -6 q45 76 82 102q47 37 121 37q92 0 159.5 -86t67.5 -189q0 -115 -62.5 -181t-160.5 -66q-135 0 -209 110q-66 98 -66 244zM242 254q0 -61 41 -113.5t98 -52.5q63 0 100 50t37 104q0 70 -36 119t-97 49t-102 -45t-41 -111z" />
<glyph unicode="J" horiz-adv-x="2521" d="M147 432q0 176 117 303t299 127q59 0 112.5 -12t108.5 -45q59 31 116.5 44t121.5 13q100 0 177 -45t128 -129q29 70 110 122t169 52q61 0 111 -13t91 -44q59 31 116.5 44t121.5 13q211 0 346 -155q121 -139 121 -312q0 -102 -62.5 -213.5t-173.5 -199.5l-94 32 q80 80 121 160q49 94 49 197q0 172 -110.5 290.5t-255.5 118.5q-55 0 -76 -3t-39 -17q109 -92 164 -211q47 -102 47 -203q0 -141 -76 -248q-83 -116 -215 -116h-2q-106 0 -188 103t-82 251q0 113 57 222.5t143 174.5q-20 12 -51 17.5t-63 5.5q-106 0 -168 -49 q-72 -57 -72 -175v-532h-160v510q0 113 -68.5 185.5t-174.5 72.5q-80 0 -111 -14q104 -86 160 -207q47 -102 47 -201q0 -141 -76 -248q-83 -116 -215 -116h-2q-106 0 -188 103t-82 251q0 113 57 222.5t143 174.5q-25 12 -62.5 17.5t-70.5 5.5q-123 0 -226.5 -105.5 t-103.5 -244.5q0 -125 47.5 -224.5t135.5 -167.5l-64 -32q-94 76 -149.5 192.5t-55.5 257.5zM557 334q0 -106 61 -174q55 -59 121 -60q78 0 129.5 73t51.5 175q0 106 -40 192.5t-128 161.5q-96 -78 -145.5 -175t-49.5 -193zM1581 334q0 -106 61 -174q55 -59 121 -60 q78 0 129.5 73t51.5 175q0 106 -40 192.5t-128 161.5q-96 -78 -145.5 -175t-49.5 -193z" />
<glyph unicode="K" horiz-adv-x="1984" d="M147 424q0 205 127 330q110 108 244 108h2q100 0 168 -38t107 -111q41 68 112.5 108.5t147.5 40.5q106 0 175.5 -31.5t119.5 -107.5q35 63 105.5 101t152.5 38q154 0 261 -126t107 -312q0 -102 -49 -195q-66 -125 -227 -247l-84 38q100 104 150.5 206t50.5 194 q0 168 -91 266q-76 82 -159 82q-72 0 -126.5 -43t-54.5 -113v-612h-159v530q0 102 -65.5 164t-153.5 62q-70 0 -117 -31q-61 -39 -62 -113v-612h-159v530q0 100 -44.5 156.5t-107.5 56.5q-104 0 -190 -90q-94 -98 -95 -247q0 -94 50 -185q59 -106 176 -190l-53 -49 q-113 90 -183 204q-76 123 -76 238z" />
<glyph unicode="L" horiz-adv-x="2007" d="M147 424q0 205 127 330q110 108 244 108h2q102 0 168 -35.5t105 -103.5q51 74 124.5 106.5t155.5 32.5q59 0 125 -22q63 -27 84 -35q59 31 116.5 44t121.5 13q207 0 343 -134t136 -333q0 -102 -62.5 -213.5t-173.5 -199.5l-94 32q80 80 121 160q49 94 49 197 q0 170 -111.5 289.5t-267.5 119.5q-76 0 -114 -20q109 -92 163 -211q47 -102 47 -203q0 -141 -75 -248q-83 -116 -215 -116h-2q-106 0 -188.5 103t-82.5 251q0 113 57.5 222.5t143.5 174.5q-51 35 -147 35q-92 0 -155 -44t-63 -112v-612h-159v530q0 100 -44 156.5t-108 56.5 q-104 0 -190 -90q-94 -98 -95 -247q0 -94 50 -185q59 -106 176 -190l-53 -49q-113 90 -183 204q-76 123 -76 238zM1055 334q0 -106 61 -174q55 -59 121 -60q78 0 129 73t51 175q0 106 -40 192.5t-128 161.5q-96 -78 -145 -175t-49 -193z" />
<glyph unicode="M" horiz-adv-x="1417" d="M147 274q0 121 82 203q94 94 256 94q143 0 236 -96q86 -90 86 -217q0 -49 -18.5 -103.5t-49.5 -88.5h506l-16 782h160l20 -1448h-799v25q113 76 113 184q0 61 -41 104q-47 49 -119 49t-120 -48t-48 -115q0 -49 18.5 -84t57.5 -78l-39 -37q-98 115 -98 227q0 94 63 158 q72 72 195 72q109 0 176.5 -72t67.5 -170q0 -37 -14.5 -81t-37.5 -69h471l-8 535h-737v14q68 43 102.5 107.5t34.5 130.5q0 80 -51 140.5t-141 60.5q-96 0 -159 -62.5t-63 -152.5q0 -61 24 -109.5t75 -99.5l-58 -47q-63 68 -95 143.5t-32 148.5z" />
<glyph unicode="N" horiz-adv-x="1759" d="M172 0v270q0 238 14.5 312.5t73.5 158.5q41 57 128 89t185 32q203 0 289 -96q37 -27 62 -76q16 -31 34 -88q10 51 40 100.5t67 77.5q45 35 113.5 58.5t156.5 23.5q207 0 310 -114q113 -125 112 -398v-350h-1585zM233 66q180 129 271 276q78 127 78 242q0 78 -43 125 t-103 47q-94 0 -148.5 -88t-54.5 -262v-340zM416 66h481v288q0 227 -80 335t-231 108q135 -96 135 -244q0 -113 -51 -203q-63 -113 -254 -284zM995 66q180 129 271 276q77 127 77 242q0 78 -43 125t-102 47q-94 0 -148.5 -88t-54.5 -262v-340zM1178 66h481v288 q0 227 -80 335t-231 108q135 -96 135 -244q0 -113 -51 -203q-63 -113 -254 -284z" />
<glyph unicode="O" horiz-adv-x="1884" d="M147 424q0 205 127 330q110 108 244 108h2q102 0 168 -35.5t105 -103.5q35 63 105.5 101t152.5 38q154 0 261 -126t107 -312q0 -94 -48 -190.5t-132 -167.5h473l-16 782h159l17 -848h-799v45q98 90 148 205q39 90 39 170q0 168 -91 266q-76 82 -159 82q-72 0 -126.5 -43 t-54.5 -113v-612h-159v530q0 100 -44 156.5t-108 56.5q-104 0 -190 -90q-94 -98 -95 -247q0 -94 50 -185q59 -106 176 -190l-53 -49q-113 90 -183 204q-76 123 -76 238z" />
<glyph unicode="P" horiz-adv-x="1333" d="M147 397q0 137 77 265.5t200 199.5l41 -49q-121 -86 -176.5 -182t-55.5 -221q0 -127 75 -218.5t184 -91.5q76 0 126 71t50 218v137q0 152 98 248q90 88 215 88q147 0 245.5 -116.5t98.5 -292.5q0 -137 -75.5 -273.5t-190.5 -197.5l-49 47q229 145 229 397q0 143 -90 238 q-77 79 -162 79h-2q-178 0 -178 -297v-116q0 -147 -90 -247.5t-209 -100.5q-154 0 -257.5 128t-103.5 287zM422 -338q0 78 46 165t132 144l45 -47q-76 -47 -112.5 -113.5t-36.5 -136.5q0 -80 55 -141t131 -61q53 0 87 48t34 154q0 158 50 227.5t173 69.5q117 0 198 -85 t81 -216q0 -74 -42 -150.5t-118 -150.5l-45 39q131 125 131 262q0 98 -54.5 158.5t-121.5 60.5q-63 0 -101.5 -68.5t-38.5 -205.5q0 -109 -66.5 -173.5t-150.5 -64.5q-100 0 -184 80q-92 86 -92 205z" />
<glyph unicode="Q" horiz-adv-x="796" d="M219 811q84 47 129 98.5t45 100.5q0 39 -18 53q-25 -20 -60 -21q-37 0 -65.5 25t-28.5 63q0 39 29 70t69 31q63 0 105.5 -51.5t42.5 -139.5q0 -82 -70 -157q-61 -68 -135 -90zM522 811q84 47 129 98.5t45 100.5q0 39 -18 53q-25 -20 -60 -21q-37 0 -65.5 25t-28.5 63 q0 39 29 70t70 31q63 0 105 -51.5t42 -139.5q0 -82 -70 -157q-61 -68 -135 -90z" />
<glyph unicode="R" horiz-adv-x="796" d="M205 983q0 82 69 158q61 68 136 90l43 -19q-84 -47 -129 -98t-45 -100q0 -39 18 -53q25 20 59 20q37 0 66 -24.5t29 -63.5t-29 -69.5t-70 -30.5q-63 0 -105 51t-42 139zM508 983q0 82 70 158q61 68 135 90l43 -19q-84 -47 -129 -98t-45 -100q0 -39 18 -53q25 20 59 20 q37 0 66 -24.5t29 -63.5t-29 -69.5t-70 -30.5q-63 0 -105 51t-42 139z" />
<glyph unicode="S" horiz-adv-x="325" d="M133 1087q0 39 27.5 67t66.5 28t67 -28t28 -67q0 -41 -27 -67.5t-68 -26.5q-37 0 -65.5 27t-28.5 67z" />
<glyph unicode="T" horiz-adv-x="1900" d="M147 424q0 205 127 330q110 108 244 108h2q102 0 168 -35.5t105 -103.5q35 63 105.5 101t152.5 38q125 0 215 -80q109 -96 108 -272v-176q0 -104 42 -169t106 -65q111 0 197.5 101.5t86.5 230.5q0 98 -66.5 211t-166.5 174l51 45q127 -98 197.5 -227t70.5 -254 q0 -145 -102 -264q-117 -135 -289 -135q-111 0 -184 84q-82 92 -82 249v177q0 150 -64 217q-55 59 -161 59q-72 0 -126.5 -43t-54.5 -113v-612h-159v530q0 100 -44 156.5t-108 56.5q-104 0 -190 -90q-94 -98 -95 -247q0 -94 50 -185q59 -106 176 -190l-53 -49 q-113 90 -183 204q-76 123 -76 238zM641 -319q0 123 84 204.5t190 81.5q63 0 112.5 -26.5t76.5 -65.5q25 39 78 67.5t116 28.5q102 0 165 -68.5t63 -191.5q0 -154 33 -207q25 -41 94 -41q63 0 114.5 62.5t51.5 142.5q0 150 -144 256l33 37q86 -49 135 -134t49 -171 q0 -104 -74.5 -189t-185.5 -85q-109 0 -164 64.5t-55 197.5v94q0 80 -44 124t-101 44q-55 0 -86 -29t-31 -78v-405h-139v360q0 49 -31 90t-84 41q-80 0 -131 -63.5t-51 -138.5q0 -82 40 -151t113 -124l-43 -43q-82 66 -133 147.5t-51 168.5z" />
<glyph unicode="U" horiz-adv-x="2207" d="M147 463q0 186 127 292.5t336 106.5t330 -71q106 -63 107 -150q0 -66 -34 -120t-91 -85q80 -18 128 -76.5t48 -142.5q0 -217 -316 -217h-385q-131 0 -131 -98q0 -33 25.5 -51.5t64.5 -18.5h916l-2 45q0 188 209 189h303q143 0 200.5 40.5t57.5 124.5q0 78 -54.5 121 t-164.5 43v66q51 0 102 37q66 47 66 114q0 68 -64 109q-74 47 -223 47q-143 0 -232 -43q-109 -53 -139 -174l8 -6q72 106 183 106q94 0 153.5 -73.5t59.5 -169.5q0 -102 -68 -178t-160 -76q-113 0 -185.5 87t-72.5 222q0 186 127 292.5t336 106.5t330 -71q106 -63 106 -150 q0 -66 -33.5 -120t-91.5 -85q80 -18 128.5 -76.5t48.5 -142.5q0 -217 -316 -217h-385q-131 0 -131 -98q0 -33 25.5 -51.5t64.5 -18.5h725v-160h-1808q-104 0 -155.5 55.5t-51.5 149.5q0 188 209 189h303q143 0 200.5 40.5t57.5 124.5q0 78 -54.5 121t-164.5 43v66 q51 0 102 37q66 47 66 114q0 68 -64 109q-74 47 -223 47q-143 0 -231 -43q-109 -53 -140 -174l9 -6q72 106 182 106q94 0 153.5 -73.5t59.5 -169.5q0 -102 -67.5 -178t-159.5 -76q-113 0 -186 87t-73 222zM274 416q0 -74 33 -121t86 -47q45 0 79 46t34 120q0 66 -35 110.5 t-84 44.5q-47 0 -80 -42.5t-33 -110.5zM1376 416q0 -74 33 -121t86 -47q45 0 79 46t34 120q0 66 -35 110.5t-84 44.5q-47 0 -80 -42.5t-33 -110.5z" />
<glyph unicode="V" horiz-adv-x="1028" d="M147 397q0 195 123 330t318 135q57 0 105 -14t89 -41q43 45 43 108q0 55 -37 99q-45 53 -124 53q-45 0 -87 -22.5t-75 -59.5l-47 29q35 72 104 119q78 53 162 53q96 0 149.5 -57.5t53.5 -155.5q0 -94 -84 -199q94 -86 137 -182t43 -205q0 -172 -80 -288.5t-203 -116.5 q-98 0 -174 89t-76 216q0 125 62 241q55 105 153 185q-16 12 -53 21t-67 9q-143 0 -246 -112.5t-103 -257.5q0 -113 54 -209q47 -84 133 -152l-43 -43q-119 86 -180 224q-49 109 -50 204zM561 319q0 -86 48 -152.5t104 -66.5q66 0 112.5 73t46.5 187q0 96 -35.5 187.5 t-78.5 124.5q-86 -70 -141.5 -165.5t-55.5 -187.5z" />
<glyph unicode="W" horiz-adv-x="1667" d="M147 432q0 176 117 303t299 127q61 0 113.5 -13t109.5 -46q57 31 140.5 45t160.5 14q92 0 180.5 -23.5t149.5 -72.5q31 39 44.5 77t13.5 72q0 55 -37 99q-45 53 -125 53q-45 0 -87 -22.5t-75 -59.5l-47 29q35 72 104 119q78 53 162 53q96 0 149.5 -57.5t53.5 -155.5 q0 -45 -31 -112.5t-78 -133.5q84 -68 139.5 -182.5t55.5 -214.5q0 -137 -79 -242.5t-183 -105.5q-127 0 -199 94q-59 78 -59 178q0 123 51 227.5t151 202.5q-47 49 -123.5 81t-162.5 32q-55 0 -115.5 -9.5t-95.5 -25.5q113 -94 168 -213q47 -100 47 -203q0 -141 -76 -248 q-84 -116 -217 -116q-106 0 -188 103t-82 251q0 113 57 222.5t143 174.5q-25 12 -62.5 17.5t-70.5 5.5q-123 0 -226.5 -105.5t-103.5 -244.5q0 -125 47.5 -224.5t135.5 -167.5l-64 -32q-94 76 -149.5 192.5t-55.5 257.5zM557 334q0 -106 61 -174q55 -59 121 -60 q78 0 129.5 73t51.5 175q0 106 -40 192.5t-128 161.5q-96 -78 -145.5 -175t-49.5 -193zM1212 295q0 -84 41.5 -139.5t98.5 -55.5q59 0 109 62.5t50 159.5q0 82 -38.5 179t-92.5 138q-68 -61 -118 -161.5t-50 -182.5z" />
<glyph unicode="X" horiz-adv-x="1501" d="M147 424q0 205 127 330q111 108 246 108q100 0 168 -38t105 -105q43 63 111.5 103t146.5 40t122 -10t89 -35q12 18 19 43t7 55q0 55 -37 99q-45 53 -125 53q-45 0 -87 -22.5t-74 -59.5l-47 29q35 72 104 119q78 53 162 53q96 0 149 -57.5t53 -155.5q0 -90 -73 -191 q80 -59 130 -173.5t50 -233.5q0 -172 -86 -282.5t-199 -110.5q-94 0 -167.5 80.5t-73.5 197.5q0 129 61 250q55 109 160 207q-12 18 -68.5 34.5t-109.5 16.5q-74 0 -127.5 -40t-53.5 -110v-618h-159v530q0 100 -44 156.5t-108 56.5q-104 0 -190 -90q-94 -98 -95 -247 q0 -94 50 -185q59 -106 176 -190l-53 -49q-113 90 -183 204q-76 123 -76 238zM1040 299q0 -84 41 -141.5t101 -57.5q70 0 117 74t47 191q0 201 -107 313q-80 -63 -139.5 -174t-59.5 -205z" />
<glyph unicode="Y" horiz-adv-x="2195" d="M147 336q0 221 134.5 373.5t355.5 152.5q98 0 176 -40t119 -109q43 68 111.5 108.5t148.5 40.5q233 0 295 -143q43 63 111.5 103t146.5 40t122 -10t89 -35q12 18 19 43t7 55q0 55 -36 99q-45 53 -125 53q-45 0 -87 -22.5t-75 -59.5l-47 29q35 72 104 119q78 53 162 53 q96 0 149.5 -57.5t53.5 -155.5q0 -90 -74 -191q80 -59 130 -173.5t50 -233.5q0 -172 -86 -282.5t-198 -110.5q-94 0 -168 80.5t-74 197.5q0 129 61 250q55 109 160 207q-12 18 -68.5 34.5t-109.5 16.5q-74 0 -127 -40t-53 -110v-618h-160v532q0 102 -65.5 164t-153.5 62 q-78 0 -128 -40t-50 -100v-618h-160v578q0 74 -66.5 126t-171.5 52q-156 0 -249 -104.5t-111 -280.5l6 -6q45 76 82 102q47 37 121 37q92 0 159.5 -86.5t67.5 -188.5q0 -115 -62.5 -181t-160.5 -66q-135 0 -209 110q-66 98 -66 244zM242 254q0 -61 41 -113.5t98 -52.5 q63 0 100 50t37 104q0 70 -36 119t-97 49t-102 -45t-41 -111zM1735 299q0 -84 41 -141.5t100 -57.5q70 0 117 74t47 191q-1 200 -107 313q-80 -63 -139 -174t-59 -205z" />
<glyph unicode="Z" horiz-adv-x="1511" d="M147 397q0 137 77 265.5t200 199.5l41 -49q-121 -86 -176.5 -182t-55.5 -221q0 -127 75 -218.5t184 -91.5q76 0 126 71t50 218v137q0 154 99 245t243 91q74 0 135 -13t123 -52q37 53 37 118q0 55 -37 99q-45 53 -125 53q-45 0 -87 -22.5t-75 -59.5l-47 29q35 72 104 119 q78 53 162 53q96 0 149.5 -57.5t53.5 -155.5q0 -86 -80 -207q78 -47 129 -158.5t51 -220.5q0 -172 -80 -288.5t-202 -116.5q-98 0 -174 89t-76 216q0 117 59.5 232.5t171.5 205.5q-66 55 -168 55q-106 0 -166.5 -87t-60.5 -240v-123q0 -147 -90 -247.5t-209 -100.5 q-154 0 -257.5 128t-103.5 287zM1044 319q0 -86 48.5 -152.5t103.5 -66.5q66 0 113 73t47 187q0 219 -105 320q-100 -82 -153.5 -179.5t-53.5 -181.5z" />
<glyph unicode="[" horiz-adv-x="661" d="M240 -303v1522h383v-66h-271v-1391h271v-65h-383z" />
<glyph unicode="\" horiz-adv-x="1687" d="M125 578q96 129 156 178q137 111 321 110q240 0 385 -157q96 -104 123 -236q41 61 107 113q92 74 169 73q160 0 236 -96q63 -80 64 -205q0 -160 -89.5 -251t-222.5 -91q-84 0 -139 33q-96 57 -158 211q-43 -86 -127 -156q-123 -104 -268 -104q-152 0 -254 117 q-111 127 -111 338h70q0 -145 105 -244q94 -90 200 -90q125 0 240 112q96 123 108 138q-55 199 -161.5 294t-247.5 95q-160 0 -281 -74q-92 -82 -184 -162q-10 14 -17.5 19.5t-23.5 34.5zM1149 371q0 -86 63.5 -151.5t133.5 -65.5q88 0 147 57t59 137q0 98 -51 149.5 t-135 51.5q-47 0 -106.5 -49t-110.5 -129z" />
<glyph unicode="]" horiz-adv-x="661" d="M178 -238h271v1391h-271v66h383v-1522h-383v65z" />
<glyph unicode="^" horiz-adv-x="20" d="M-1008 1268q0 39 28 66.5t67 27.5t66.5 -27.5t27.5 -66.5q0 -41 -26.5 -67.5t-67.5 -26.5q-37 0 -66 26.5t-29 67.5z" />
<glyph unicode="_" horiz-adv-x="872" d="M176 360v66h660v-66h-660z" />
<glyph unicode="`" horiz-adv-x="1327" d="M172 -61q0 96 59.5 150t169.5 75q-111 39 -165 115q-63 88 -64 237q0 139 77 242.5t204 103.5q98 0 160.5 -68.5t62.5 -166.5q0 -117 -64.5 -183.5t-154.5 -66.5q-55 0 -107.5 31.5t-87.5 87.5q-4 -150 96 -222q113 -80 387 -79q270 0 383 79q100 72 101 222 q-37 -55 -91.5 -87t-107.5 -32q-90 0 -151 63q-68 70 -68 187q0 98 62.5 166.5t160.5 68.5q127 0 207 -106q74 -98 74 -240q0 -147 -64 -235q-55 -78 -166 -113q111 -25 166 -76q63 -59 64 -153q0 -121 -119 -195q-148 -92 -451 -92q-305 0 -452 92q-121 76 -121 195z M311 621q0 -72 35 -117t84 -45q51 0 85 43t34 125q0 66 -32 109.5t-79 43.5q-51 0 -89 -45.5t-38 -113.5zM319 -63q0 -86 112 -144.5t314 -58.5q199 0 310.5 58t111.5 145q0 82 -111.5 137t-310.5 55q-201 0 -313.5 -55.5t-112.5 -136.5zM938 627q0 -80 34 -124t85 -44 q49 0 84 45t35 117q0 66 -39 112.5t-88 46.5t-80 -42.5t-31 -110.5z" />
<glyph unicode="a" horiz-adv-x="2422" d="M147 424q0 205 127 330q111 108 246 108q100 0 168 -38t105 -105q43 63 111.5 103t146.5 40t122 -10t89 -35q12 18 19 43t7 55q0 55 -37 99q-45 53 -125 53q-45 0 -87 -22.5t-74 -59.5l-47 29q35 72 104 119q78 53 162 53q96 0 149 -57.5t53 -155.5q0 -90 -73 -191 q80 -59 130 -173.5t50 -233.5q0 -172 -86 -282.5t-199 -110.5q-94 0 -167.5 80.5t-73.5 197.5q0 129 61 250q55 109 160 207q-12 18 -68.5 34.5t-109.5 16.5q-74 0 -127.5 -40t-53.5 -110v-618h-159v530q0 100 -44 156.5t-108 56.5q-104 0 -190 -90q-94 -98 -95 -247 q0 -94 50 -185q59 -106 176 -190l-53 -49q-113 90 -183 204q-76 123 -76 238zM1040 299q0 -84 41 -141.5t101 -57.5q70 0 117 74t47 191q0 201 -107 313q-80 -63 -139.5 -174t-59.5 -205zM1602 403q0 180 106 310q122 149 335 149h3q164 0 278.5 -125t114.5 -301 q0 -125 -67 -237q-76 -129 -226 -217l-53 77q186 125 186 320q0 139 -77.5 231t-208.5 92t-218 -85t-87 -228q0 -229 208 -356l-32 -51q-123 78 -192.5 190.5t-69.5 230.5z" />
<glyph unicode="b" horiz-adv-x="542" d="M170 0v66h201l-17 782h160l16 -848h-360z" />
<glyph unicode="c" horiz-adv-x="655" d="M-53 -258q0 55 32.5 94t90.5 39q18 0 51 -5t35 -5q41 0 56 17.5t15 78.5h109l4 -41q0 -55 -36 -88t-116 -33q-68 0 -91 -21.5t-23 -76.5q0 -41 43 -69.5t110 -28.5q129 0 198 70.5t69 183.5q0 63 -26 114.5t-116 161.5q-68 84 -106.5 214t-38.5 312v189h160v-297 q0 -94 34.5 -201.5t87.5 -183.5q76 -106 110 -187t34 -141q0 -129 -103.5 -215t-279.5 -86q-141 0 -222 55.5t-81 149.5z" />
<glyph unicode="d" horiz-adv-x="378" d="M156 137q0 150 41 398q35 213 65 313h64q-43 -156 -76 -358.5t-33 -319.5q0 -141 66 -205q57 -55 168 -55q76 0 155 33l-22 -166q-31 -12 -65 -19.5t-73 -7.5q-143 0 -213 80q-77 89 -77 302v5z" />
<glyph unicode="e" horiz-adv-x="1536" d="M147 424q0 205 127 330q110 108 244 108h2q102 0 168 -35.5t105 -103.5q35 63 105.5 101t152.5 38q141 0 249 -117q102 -109 125 -258h105v-65h-98q0 -188 -69 -314t-187 -126q-88 0 -154 79.5t-66 180.5q0 119 64 176q75 67 251 67h5q-16 109 -95 196t-171 87 q-72 0 -126.5 -43t-54.5 -113v-612h-159v530q0 100 -44 156.5t-108 56.5q-104 0 -190 -90q-94 -98 -95 -247q0 -94 50 -185q59 -106 176 -190l-53 -49q-113 90 -183 204q-76 123 -76 238zM1030 254q0 -66 34 -110t91 -44q129 0 129 271v51q-137 0 -195.5 -37t-58.5 -131z " />
<glyph unicode="f" horiz-adv-x="2508" d="M143 258q0 109 68 170t195 61h131q0 152 72.5 262.5t197.5 110.5q127 0 205 -101.5t94 -271.5h127q109 0 178 -59q82 -70 82 -203q0 -51 -17.5 -92t-50.5 -69h369v276q-121 0 -213 86t-92 203q0 94 70.5 162.5t173.5 68.5q115 0 168 -74.5t53 -199.5v-174 q129 35 280.5 175t188.5 259h57l17 -848h-1301v14q59 23 104 84q53 72 54 152q0 82 -44 128t-122 46h-76q0 -217 -96 -338q-84 -104 -199 -104q-74 0 -127 30q-63 37 -106 123q-29 -74 -82 -113.5t-107 -39.5q-90 0 -164 63q-88 76 -88 213zM283 268q0 -74 37.5 -133 t95.5 -59q57 0 89 51t32 133v164h-66q-96 0 -142 -42t-46 -114zM598 424q0 -176 49 -262t129 -86q96 0 146.5 95t50.5 253h-375zM598 489h375q0 111 -54.5 189t-138.5 78q-76 0 -125 -64q-57 -72 -57 -203zM1587 616q0 -74 57.5 -137t149.5 -71v229q0 59 -29.5 89t-76.5 30 q-43 0 -72 -39t-29 -101zM1954 66h381l-13 534q-66 -82 -178 -155.5t-190 -90.5v-288z" />
<glyph unicode="g" horiz-adv-x="929" d="M147 346q0 254 123 391q113 125 293 125q123 0 215 -69.5t92 -151.5q0 -66 -33.5 -120t-91.5 -85q78 -18 127.5 -71.5t49.5 -118.5q0 -94 -39 -154.5t-115 -89.5q70 -18 112 -61t42 -107q0 -92 -89.5 -149.5t-203.5 -57.5q-63 0 -119.5 12.5t-132.5 38.5l-29 121 q33 -20 106.5 -42.5t127.5 -22.5q68 0 124 32.5t56 86.5q0 63 -51.5 105t-147.5 42h-153v66h147q94 0 149.5 43t55.5 122q0 78 -51.5 121t-153.5 43h-119v66q125 0 199 39t74 116q0 63 -53.5 107.5t-141.5 44.5q-139 0 -217 -116.5t-78 -315.5q0 -102 17 -189q6 -33 36 -147 l-71 -18q-18 76 -37 180t-19 184z" />
<glyph unicode="h" horiz-adv-x="835" d="M147 424q0 195 101.5 316.5t257.5 121.5q127 0 225 -64.5t98 -174.5v-623h-159v530q0 121 -52 172q-40 41 -122 41q-100 0 -179 -90q-84 -98 -84 -247q0 -106 56.5 -208t159.5 -171l-43 -45q-111 66 -181 176q-78 123 -78 266z" />
<glyph unicode="i" horiz-adv-x="1742" d="M147 346q0 252 136 391q121 125 309 125q119 0 196 -65q70 -59 70 -135q0 -59 -32.5 -111.5t-88.5 -73.5l-4 -4q63 -14 108.5 -60t45.5 -110q0 -55 -46 -91t-108 -36q-88 0 -109.5 -10t-21.5 -43q0 -41 60 -60q41 -12 120 -12q117 0 188.5 50.5t71.5 123.5v623h160v-535 q0 -96 44 -154.5t118 -58.5q111 0 198 101.5t87 230.5q0 98 -66.5 211t-167.5 174l51 45q127 -98 198 -227t71 -254q0 -145 -103 -264q-117 -135 -289 -135q-90 0 -161.5 35.5t-102.5 107.5q-53 -78 -145 -123t-203 -45q-145 0 -217 46t-72 124q0 115 125 115q76 0 118 25.5 t42 66.5q0 37 -33 67q-39 37 -100 37h-125v66h96q68 0 100.5 39t32.5 100q0 51 -43 88t-114 37q-145 0 -232.5 -118t-87.5 -314q0 -104 17 -189q8 -39 38 -147l-75 -18q-23 88 -35 168q-18 111 -19 196z" />
<glyph unicode="j" horiz-adv-x="2396" d="M147 432q0 176 117 303t299 127q59 0 112.5 -12t108.5 -45q100 57 238 57q190 0 315 -139q117 -129 117 -297q0 -104 -25.5 -178t-101.5 -182h277v434q0 166 104 264t287 98q176 0 282.5 -110.5t106.5 -298.5v-453h-1237v25q68 43 114 142t46 218q0 160 -107.5 277.5 t-236.5 117.5q-78 0 -115 -20q109 -92 164 -211q47 -102 47 -203q0 -141 -76 -248q-83 -116 -215 -116h-2q-106 0 -188 103t-82 251q0 113 57 222.5t143 174.5q-25 12 -62.5 17.5t-70.5 5.5q-123 0 -226.5 -105.5t-103.5 -244.5q0 -125 47.5 -224.5t135.5 -167.5l-64 -32 q-94 76 -149.5 192.5t-55.5 257.5zM557 334q0 -106 61 -174q55 -59 121 -60q78 0 129.5 73t51.5 175q0 106 -40 192.5t-128 161.5q-96 -78 -145.5 -175t-49.5 -193zM1763 66h559v307q0 383 -290 383q-129 0 -199 -76t-70 -217v-397z" />
<glyph unicode="k" />
<glyph unicode="l" horiz-adv-x="1327" d="M176 0q6 61 9 238.5t3 283.5q0 80 -1 165t-3 175h318q127 0 190 -61q57 -55 58 -148q0 -94 -71 -164.5t-169 -70.5q41 -27 95 -96.5t114 -171.5q25 -41 60.5 -86.5t60.5 -63.5h-176q-223 395 -336 395v-395h-152zM328 453h104q170 0 170 182q0 63 -49 118.5t-121 55.5 h-104v-356zM899 467q0 74 62.5 128t154.5 54q55 0 93 -11t87 -38l-30 -74h-19q-31 39 -61.5 54.5t-73.5 15.5q-55 0 -85 -29.5t-30 -79.5q0 -45 163 -114.5t163 -186.5q0 -80 -76 -142t-160 -62q-45 0 -87 13t-91 40v86h29q57 -86 147 -86q53 0 96.5 34.5t43.5 73.5 q0 57 -163 127t-163 197z" />
<glyph unicode="m" horiz-adv-x="3047" d="M147 336q0 221 134.5 373.5t355.5 152.5q98 0 176 -40t119 -109q43 68 111.5 108.5t148.5 40.5q111 0 179.5 -32.5t115.5 -106.5q35 63 105.5 101t152.5 38q123 0 195.5 -83t72.5 -222v-233q0 -123 78 -189q66 -55 158 -55q61 0 120.5 43t59.5 106v623h160v-530 q0 -102 41 -160t110 -58q104 0 191 93q94 100 94 249q0 96 -49 185q-59 104 -176 186l53 49q113 -86 185.5 -204.5t72.5 -233.5q0 -209 -102 -334q-91 -112 -220 -112h-2q-104 0 -194 40.5t-127 106.5q-41 -63 -103.5 -103t-132.5 -40q-168 0 -256 61q-123 84 -123 295v217 q0 106 -47 162q-39 47 -100 47q-72 0 -126 -43t-54 -113v-612h-160v530q0 102 -65.5 164t-153.5 62q-78 0 -128 -39t-50 -99v-618h-160v578q0 74 -66.5 126t-171.5 52q-156 0 -249 -104.5t-111 -280.5l6 -6q45 76 82 102q47 37 121 37q92 0 159.5 -86t67.5 -189 q0 -115 -62.5 -181t-160.5 -66q-135 0 -209 110q-66 98 -66 244zM242 254q0 -61 41 -113.5t98 -52.5q63 0 100 50t37 104q0 70 -36 119t-97 49t-102 -45t-41 -111z" />
<glyph unicode="n" />
<glyph unicode="o" horiz-adv-x="1945" d="M131 381q0 125 70.5 254t197.5 227l52 -45q-98 -59 -166 -173t-68 -212q0 -131 86 -231.5t199 -100.5q63 0 105 63.5t42 170.5v176q0 174 107 270q92 82 217 82q82 0 152.5 -37t105.5 -102q37 63 105.5 101t166.5 38q182 0 297 -92q143 -115 144 -350q0 -115 -80 -236 q-72 -109 -195 -200l-88 39q82 78 142.5 194.5t60.5 196.5q0 158 -76 259t-176 101q-96 0 -143 -65q-35 -47 -35 -101v-608h-160v612q0 72 -53.5 114t-126.5 42q-106 0 -162 -59q-63 -68 -64 -217v-177q0 -158 -81 -249q-74 -84 -185 -84q-174 0 -289 133q-102 119 -102 266 z" />
<glyph unicode="p" horiz-adv-x="2066" d="M147 336q0 221 134.5 373.5t355.5 152.5q199 0 293 -149q18 53 74 96q68 53 139 53q98 0 162 -28q20 -10 73 -50q72 47 124 62.5t147 15.5q207 0 309 -114q113 -125 113 -398v-350h-824v270q0 186 9.5 283.5t52.5 146.5q-39 35 -66 48q-43 20 -106 20q-59 0 -107 -35 q-63 -47 -63 -139v-594h-160v578q0 74 -66.5 126t-171.5 52q-156 0 -249 -104.5t-111 -280.5l6 -6q45 76 82 102q47 37 121 37q92 0 159.5 -86t67.5 -189q0 -115 -62.5 -181t-160.5 -66q-135 0 -209 110q-66 98 -66 244zM242 254q0 -61 41 -113.5t98 -52.5q63 0 100 50 t37 104q0 70 -36 119t-97 49t-102 -45t-41 -111zM1309 66q180 129 270 276q78 127 78 242q0 78 -43 125t-103 47q-94 0 -148 -88t-54 -262v-340zM1491 66h481v288q0 227 -80 335t-231 108q135 -96 135 -244q0 -113 -51 -203q-63 -113 -254 -284z" />
<glyph unicode="q" horiz-adv-x="2019" d="M147 397q0 195 123 330t318 135q57 0 105 -13t104 -46q31 18 63 37q47 22 111 22h6q106 0 192 -57q74 -49 107 -117q59 86 160.5 130t212.5 44q150 0 256 -77.5t106 -186.5q0 -57 -42 -101t-109 -44q-47 0 -100.5 13t-69.5 13q-47 0 -84 -26.5t-37 -63.5q0 -74 145 -74 q35 2 49.5 4.5t26.5 2.5h47q78 0 125 -33q59 -41 59 -121q0 -88 -73.5 -143.5t-206.5 -55.5q-76 0 -164 8.5t-158 24.5l-18 100q74 -23 138.5 -31t133.5 -8q88 0 138.5 26t50.5 73q0 41 -36 59.5t-128 18.5q-139 0 -214 34.5t-75 110.5q0 74 47 121t129 47q39 0 104.5 -8 t86.5 -8q31 0 53 24.5t22 54.5q0 61 -63.5 106.5t-161.5 45.5q-166 0 -254 -74q-63 -53 -63 -106v-588h-160v530q0 102 -65.5 164t-153.5 62q-29 0 -42.5 -3t-23.5 -5q76 -72 116 -166.5t40 -194.5q0 -172 -80 -288.5t-203 -116.5q-98 0 -174 89t-76 216q0 119 57.5 238.5 t147.5 193.5q-14 12 -48 18t-62 6q-143 0 -246 -112.5t-103 -257.5q0 -113 54 -209q47 -84 133 -152l-43 -43q-119 86 -180 224q-49 109 -50 204zM561 319q0 -86 48 -152.5t104 -66.5q66 0 112.5 73t46.5 187q0 96 -37.5 190.5t-80.5 127.5q-80 -59 -136.5 -164.5 t-56.5 -194.5z" />
<glyph unicode="r" horiz-adv-x="2377" d="M147 397q0 195 123 330t318 135q57 0 105 -13t104 -46q31 18 63 37q47 22 111 22h6q102 0 188 -55q66 -41 101 -98q33 70 108.5 111.5t157.5 41.5q125 0 215 -80q109 -96 108 -272v-176q0 -104 42 -169t106 -65q111 0 198 101.5t87 230.5q0 98 -67 211t-167 174l51 45 q127 -98 198 -227t71 -254q0 -145 -103 -264q-117 -135 -289 -135q-111 0 -184 84q-82 92 -82 249v177q0 150 -63 217q-55 59 -162 59q-72 0 -126 -43t-54 -113v-612h-160v530q0 102 -65.5 164t-155.5 62q-29 0 -42.5 -3t-23.5 -5q76 -72 116 -166.5t40 -194.5 q0 -172 -80 -288.5t-203 -116.5q-98 0 -174 89t-76 216q0 119 57.5 238.5t147.5 193.5q-14 12 -48 18t-62 6q-143 0 -246 -112.5t-103 -257.5q0 -113 54 -209q47 -84 133 -152l-43 -43q-119 86 -180 224q-49 109 -50 204zM561 319q0 -86 48 -152.5t104 -66.5q66 0 112.5 73 t46.5 187q0 96 -37.5 190.5t-80.5 127.5q-80 -59 -136.5 -164.5t-56.5 -194.5z" />
<glyph unicode="s" horiz-adv-x="2379" d="M147 424q0 205 127 330q110 108 244 108h2q102 0 168 -35.5t105 -103.5q35 63 105.5 101t152.5 38q154 0 261 -126t107 -312q0 -88 -47 -186q-53 -109 -135 -172h367v434q0 166 104 264t287 98q176 0 282.5 -110.5t106.5 -298.5v-453h-1282l-43 20q100 104 150.5 206 t50.5 194q0 168 -91 266q-76 82 -159 82q-72 0 -126.5 -43t-54.5 -113v-612h-159v530q0 100 -44 156.5t-108 56.5q-104 0 -190 -90q-94 -98 -95 -247q0 -94 50 -185q59 -106 176 -190l-53 -49q-113 90 -183 204q-76 123 -76 238zM1763 66h559v307q0 383 -290 383 q-129 0 -199 -76t-70 -217v-397z" />
<glyph unicode="t" horiz-adv-x="2336" d="M147 424q0 205 127 330q110 108 244 108h2q102 0 168 -35.5t105 -103.5q76 139 258 139q117 0 191.5 -83t74.5 -222v-233q0 -133 34.5 -188.5t114.5 -55.5q61 0 121 43t60 106v623h159v-530q0 -102 41 -160t111 -58q104 0 190 93q94 100 95 249q0 96 -50 185 q-59 104 -176 186l54 49q113 -86 185.5 -204.5t72.5 -233.5q0 -209 -103 -334q-91 -112 -219 -112h-2q-104 0 -194.5 40.5t-127.5 106.5q-41 -63 -103 -103t-132 -40q-150 0 -213 61q-80 78 -80 295v217q0 111 -38 160t-107 49q-72 0 -126.5 -43t-54.5 -113v-612h-159v530 q0 100 -44 156.5t-108 56.5q-104 0 -190 -90q-94 -98 -95 -247q0 -94 50 -185q59 -106 176 -190l-53 -49q-113 90 -183 204q-76 123 -76 238z" />
<glyph unicode="u" horiz-adv-x="2056" d="M131 381q0 125 70.5 254t197.5 227l52 -45q-98 -59 -166 -173t-68 -212q0 -131 86 -231.5t199 -100.5q63 0 105 63.5t42 170.5v176q0 178 105 270q92 82 239 82q113 0 187 -51q61 -43 106 -135q-2 0 -4 2q18 29 43 63q41 57 128 89t185 32q207 0 310 -114 q113 -125 112 -398v-350h-367.5t-527.5 -2v512q0 147 -53 209q-43 49 -131 49q-98 0 -145.5 -62.5t-47.5 -213.5v-177q0 -158 -81 -249q-74 -84 -185 -84q-174 0 -289 133q-102 119 -102 266zM1305 55q84 55 192 193q150 188 150 336q0 78 -43 125t-103 47q-86 0 -141 -76 t-55 -172v-453zM1481 66h481v288q0 227 -80 335t-231 108q135 -96 135 -244q0 -113 -51 -203q-63 -113 -254 -284z" />
<glyph unicode="v" horiz-adv-x="2211" d="M147 432q0 176 117 303t299 127q59 0 112.5 -12t108.5 -45q100 57 238 57q143 0 246 -74q53 -49 106 -96q57 78 151.5 124t209.5 46q229 0 350 -108.5t121 -337.5v-416h-903v459q0 94 -103 203q-112 118 -237 118q-78 0 -115 -20q109 -92 164 -211q47 -102 47 -203 q0 -141 -76 -248q-83 -116 -215 -116h-2q-106 0 -188 103t-82 251q0 113 57 222.5t143 174.5q-25 12 -62.5 17.5t-70.5 5.5q-123 0 -226.5 -105.5t-103.5 -244.5q0 -125 47.5 -224.5t135.5 -167.5l-64 -32q-94 76 -149.5 192.5t-55.5 257.5zM557 334q0 -106 61 -174 q55 -59 121 -60q78 0 129.5 73t51.5 175q0 106 -40 192.5t-128 161.5q-96 -78 -145.5 -175t-49.5 -193zM1442 66q180 129 270 276q78 127 78 242q0 78 -43 125t-102 47q-94 0 -148.5 -90.5t-54.5 -274.5v-325zM1624 66h481v288q0 227 -79.5 335t-231.5 108q135 -96 135 -244 q0 -113 -51 -203q-63 -113 -254 -284z" />
<glyph unicode="w" horiz-adv-x="1464" d="M147 424q0 205 127 330q110 108 244 108h2q102 0 168 -35.5t105 -103.5q100 139 299 139q127 0 220 -69.5t93 -151.5q0 -66 -34 -120t-91 -85q78 -18 127 -71.5t49 -118.5q0 -102 -93 -183t-239 -81q-49 0 -93 5t-64 13l-25 111q84 -47 143 -48q84 0 147.5 48.5 t63.5 119.5q0 78 -51 121t-153 43h-119v66q123 0 197.5 39t74.5 112q0 63 -52 109.5t-136 46.5q-86 0 -150 -35q-78 -43 -78 -117v-616h-159v530q0 100 -44 156.5t-108 56.5q-104 0 -190 -90q-94 -98 -95 -247q0 -94 50 -185q59 -106 176 -190l-53 -49q-113 90 -183 204 q-76 123 -76 238z" />
<glyph unicode="x" horiz-adv-x="993" d="M147 403q0 180 107 310q122 149 335 149h3q164 0 278.5 -125t114.5 -301q0 -125 -67 -237q-76 -129 -226 -217l-53 77q186 125 186 320q0 139 -77.5 231t-208.5 92t-218.5 -85t-87.5 -228q0 -229 209 -356l-32 -51q-123 78 -193 190.5t-70 230.5zM244 -338q0 111 61 193 q83 112 253 112h3q119 0 203 -69q94 -78 94 -213q0 -90 -57 -177q-49 -72 -129 -126l-45 59q57 51 87.5 101t30.5 104q0 98 -64.5 156.5t-141.5 58.5q-100 0 -161 -56.5t-61 -138.5q0 -143 136 -244l-29 -45q-80 53 -130 129t-50 156z" />
<glyph unicode="y" horiz-adv-x="1937" d="M147 432q0 176 117 303t299 127q59 0 112.5 -12t108.5 -45q66 33 115 45t133 12q102 0 168 -35.5t105 -103.5q35 63 105.5 101t152.5 38q154 0 261 -126t107 -312q0 -102 -49 -195q-66 -125 -227 -247l-84 38q100 104 150.5 206t50.5 194q0 168 -91 266q-76 82 -159 82 q-72 0 -126.5 -43t-54.5 -113v-612h-159v530q0 104 -58.5 171t-160.5 67q-80 0 -111 -14q104 -86 160 -207q47 -102 47 -201q0 -141 -76 -248q-83 -116 -215 -116h-2q-106 0 -188 103t-82 251q0 113 57 222.5t143 174.5q-25 12 -62.5 17.5t-70.5 5.5q-123 0 -226.5 -105.5 t-103.5 -244.5q0 -125 47.5 -224.5t135.5 -167.5l-64 -32q-94 76 -149.5 192.5t-55.5 257.5zM557 334q0 -106 61 -174q55 -60 121 -60q78 0 129.5 73t51.5 175q0 106 -40 192.5t-128 161.5q-96 -78 -145.5 -175t-49.5 -193z" />
<glyph unicode="z" horiz-adv-x="1552" d="M147 424q0 197 98.5 317.5t260.5 120.5q92 0 158.5 -49t109.5 -137q-2 0 -4 2q18 29 43 63q41 57 128 89t185 32q207 0 310 -114q113 -125 112 -398v-350h-367.5t-527.5 -2v512q0 106 -43 169.5t-114 63.5q-100 0 -179 -90q-84 -98 -84 -247q0 -106 56.5 -208t159.5 -171 l-43 -45q-111 66 -181 176q-78 123 -78 266zM793 55q84 55 192 193q150 188 150 336q0 78 -43 125t-103 47q-86 0 -141 -76t-55 -172v-453zM969 66h481v288q0 227 -80 335t-231 108q135 -96 135 -244q0 -113 -51 -203q-63 -113 -254 -284z" />
<glyph unicode="{" horiz-adv-x="1105" d="M147 463q0 186 127 292.5t336 106.5t330 -71q106 -63 107 -150q0 -66 -34 -120t-91 -85q80 -18 128 -76.5t48 -142.5q0 -217 -316 -217h-385q-131 0 -131 -98q0 -33 25.5 -51.5t64.5 -18.5h725v-160h-706q-104 0 -155.5 55.5t-51.5 149.5q0 188 209 189h303 q143 0 200.5 40.5t57.5 124.5q0 78 -54.5 121t-164.5 43v66q51 0 102 37q66 47 66 114q0 68 -64 109q-74 47 -223 47q-143 0 -231 -43q-109 -53 -140 -174l9 -6q72 106 182 106q94 0 153.5 -73.5t59.5 -169.5q0 -102 -67.5 -178t-159.5 -76q-113 0 -186 87t-73 222zM274 416 q0 -74 33 -121t86 -47q45 0 79 46t34 120q0 66 -35 110.5t-84 44.5q-47 0 -80 -42.5t-33 -110.5z" />
<glyph unicode="|" horiz-adv-x="1007" d="M141 -291q0 119 87 204t218 85q111 0 174.5 -65.5t63.5 -182.5q0 -86 30.5 -129t82.5 -43q55 0 98 47t43 109q0 147 -125 235l37 29q68 -47 109.5 -117.5t41.5 -140.5q0 -98 -64.5 -170t-166.5 -72q-88 0 -135 63.5t-47 178.5q0 203 -162 203q-57 0 -97 -17.5t-87 -66.5 l4 -4q4 2 24.5 8t36.5 6q72 0 123 -55.5t51 -143.5q0 -92 -53 -141q-43 -39 -94 -39q-76 0 -131 57q-61 63 -62 162zM172 0v270q0 238 14.5 312.5t73.5 158.5q41 57 128 89t185 32q207 0 310 -114q113 -125 112 -398v-350h-823zM193 -289q0 -70 33.5 -110.5t99.5 -40.5 q33 0 57.5 26.5t24.5 67.5q0 57 -36.5 91t-95.5 34q-29 0 -42 -3t-33 -16q-8 -18 -8 -49zM233 66q180 129 271 276q78 127 78 242q0 78 -43 125t-103 47q-94 0 -148.5 -88t-54.5 -262v-340zM416 66h481v288q0 227 -80 335t-231 108q135 -96 135 -244q0 -113 -51 -203 q-63 -113 -254 -284z" />
<glyph unicode="}" horiz-adv-x="20" d="M-842 1522h238l-119 -363z" />
<glyph unicode="&#xa1;" horiz-adv-x="38" d="M-492 1202v33.5t7 40.5h149q-4 -12 -6 -38t-2 -40q0 -53 41 -92t98 -39q72 0 121 55.5t49 153.5h62q0 -154 -71 -234.5t-189 -80.5q-100 0 -177 63q-82 70 -82 178z" />
<glyph unicode="&#xa2;" horiz-adv-x="634" d="M184 229q0 100 62.5 167t154.5 67q98 0 157.5 -69.5t59.5 -178.5q0 -90 -61 -159.5t-156 -69.5q-96 0 -156.5 71.5t-60.5 171.5zM246 229q0 -61 38 -105t99 -44q57 0 97 44t40 105t-39 106.5t-98 45.5t-98 -45.5t-39 -106.5z" />
<glyph unicode="&#xa3;" horiz-adv-x="530" d="M147 174q0 80 54.5 149.5t138.5 69.5q70 0 126 -60.5t56 -144.5q0 -86 -52 -152.5t-134 -66.5q-80 0 -131 51q-57 57 -58 154zM147 643q0 80 54.5 149.5t138.5 69.5q70 0 126 -60.5t56 -144.5q0 -86 -52 -152.5t-134 -66.5q-80 0 -131 51q-57 57 -58 154zM209 174 q0 -59 30.5 -99t77.5 -40q43 0 75 40t32 105q0 68 -33 108t-69 40q-45 0 -79 -46t-34 -108zM209 643q0 -59 30.5 -99t77.5 -40q43 0 75 40t32 105q0 68 -33 108t-69 40q-45 0 -79 -46t-34 -108z" />
<glyph unicode="&#xa4;" />
<glyph unicode="&#xa5;" horiz-adv-x="2045" d="M147 432q0 176 117 303t299 127q63 0 124 -13t93 -32q96 45 238 45q96 0 184 -39t131 -116q45 70 116 112.5t157 42.5q180 0 309 -147q123 -141 123 -328q0 -172 -80 -288.5t-203 -116.5q-98 0 -174 89t-76 216q0 131 83 229t227 119q-37 66 -98.5 99.5t-125.5 33.5 q-76 0 -147.5 -44t-71.5 -112v-612h-160v524q0 104 -80.5 174t-173.5 70l-61 -2q55 -29 91 -81t36 -110q0 -55 -33 -102t-84 -76q147 -45 148 -174q0 -84 -62 -155q-74 -86 -190 -86q-129 0 -216 109.5t-87 268.5q0 119 42 214.5t138 170.5q-23 6 -48.5 8.5t-53.5 2.5 q-131 0 -238 -104.5t-107 -245.5q0 -125 47.5 -224.5t135.5 -167.5l-64 -32q-94 76 -149.5 192.5t-55.5 257.5zM561 360q0 -109 56.5 -190.5t140.5 -81.5q55 0 96 39t41 90q0 53 -46 91t-114 38h-49v66h47q57 0 104.5 43t47.5 98q0 45 -40 95t-97 73q-74 -37 -127 -131 q-59 -104 -60 -230zM1579 319q0 -86 48.5 -152.5t103.5 -66.5q66 0 112.5 73t46.5 187q0 53 -8 102.5t-39 112.5q-115 -14 -189.5 -81.5t-74.5 -174.5z" />
<glyph unicode="&#xa6;" horiz-adv-x="2312" d="M147 432q0 176 117 303t299 127q63 0 124 -13t93 -32q96 45 238 45q96 0 184 -39t131 -116q45 70 116 112.5t157 42.5q119 0 211 -59.5t147 -159.5q154 -33 247 -154.5t93 -295.5q0 -217 -133 -356.5t-346 -139.5q-129 0 -232 47l33 84q59 -25 135 -25q188 0 314 148 q117 137 116 317q0 102 -55 192.5t-135 117.5q37 -102 37 -191q0 -172 -80 -288.5t-203 -116.5q-98 0 -174 89t-76 216q0 131 83 229t227 119q-37 66 -98.5 99.5t-125.5 33.5q-76 0 -147.5 -44t-71.5 -112v-612h-160v524q0 104 -80.5 174t-173.5 70l-61 -2q55 -29 91 -81 t36 -110q0 -55 -33 -102t-84 -76q147 -45 148 -174q0 -84 -62 -155q-74 -86 -190 -86q-129 0 -216 109.5t-87 268.5q0 119 42 214.5t138 170.5q-23 6 -48.5 8.5t-53.5 2.5q-131 0 -238 -104.5t-107 -245.5q0 -125 47.5 -224.5t135.5 -167.5l-64 -32q-94 76 -149.5 192.5 t-55.5 257.5zM561 360q0 -109 56.5 -190.5t140.5 -81.5q55 0 96 39t41 90q0 53 -46 91t-114 38h-49v66h47q57 0 104.5 43t47.5 98q0 45 -40 95t-97 73q-74 -37 -127 -131q-59 -104 -60 -230zM1579 319q0 -86 48.5 -152.5t103.5 -66.5q66 0 112.5 73t46.5 187q0 53 -8 102.5 t-39 112.5q-115 -14 -189.5 -81.5t-74.5 -174.5z" />
<glyph unicode="&#xa7;" horiz-adv-x="1533" d="M147 426q0 188 120 312t335 124q100 0 175 -40t120 -111q31 59 94 102q74 49 160 49q150 0 262.5 -130t112.5 -294q0 -197 -91.5 -317.5t-224.5 -120.5h-813q-131 0 -131 -98q0 -33 25.5 -51.5t64.5 -18.5h1135v-160h-1116q-104 0 -155.5 55.5t-51.5 149.5q0 188 209 189 h706q283 0 283 356q0 150 -72.5 248t-187.5 98q-76 0 -125 -39t-49 -113v-479h-160v441q0 74 -66.5 126t-170.5 52q-109 0 -189 -56q-92 -63 -117 -182l9 -4q72 106 182 107q94 0 153.5 -74t59.5 -170q0 -102 -67.5 -178t-159.5 -76q-111 0 -185 86t-74 217zM274 385 q0 -74 33 -121t86 -47q45 0 79 46t34 120q0 66 -35 111t-84 45q-47 0 -80 -43t-33 -111z" />
<glyph unicode="&#xa8;" horiz-adv-x="2742" d="M147 426q0 188 120 312t335 124q100 0 175 -40t120 -111q31 59 94 102q74 49 160 49q150 0 262.5 -130t112.5 -294q0 -197 -91.5 -317.5t-224.5 -120.5h-813q-131 0 -131 -98q0 -33 25.5 -51.5t64.5 -18.5h1135v-160h-1116q-104 0 -155.5 55.5t-51.5 149.5q0 188 209 189 h706q283 0 283 356q0 150 -72.5 248t-187.5 98q-76 0 -125 -39t-49 -113v-479h-160v441q0 74 -66.5 126t-170.5 52q-109 0 -189 -56q-92 -63 -117 -182l9 -4q72 106 182 107q94 0 153.5 -74t59.5 -170q0 -102 -67.5 -178t-159.5 -76q-111 0 -185 86t-74 217zM274 385 q0 -74 33 -121t86 -47q45 0 79 46t34 120q0 66 -35 111t-84 45q-47 0 -80 -43t-33 -111zM1581 479q0 156 72 260q84 123 239 123q82 0 153 -45t91 -96q25 51 94 92q82 49 172 49q147 0 239.5 -129t92.5 -336q0 -172 -96 -286q-119 -141 -357 -142q-174 0 -272 68.5 t-98 171.5h61q8 -74 79 -116t194 -42q164 0 246.5 89t82.5 278q0 158 -67.5 254t-182.5 96q-57 0 -103 -44t-46 -97v-267h-160v191q0 96 -46 156.5t-124 60.5q-92 0 -147.5 -86t-55.5 -221l7 -94h-62q-6 43 -6 112z" />
<glyph unicode="&#xa9;" horiz-adv-x="1101" d="M147 463q0 182 111 287q121 113 352 112q242 0 369 -127q115 -115 115 -297q0 -197 -91.5 -317.5t-224.5 -120.5h-381q-131 0 -131 -98q0 -33 25.5 -51.5t64.5 -18.5h725v-160h-706q-104 0 -155.5 55.5t-51.5 149.5q0 188 209 189h274q283 0 283 356q0 143 -66 227 q-94 119 -313 119q-276 0 -326 -217l9 -6q72 106 182 106q94 0 153.5 -73.5t59.5 -169.5q0 -102 -67.5 -178t-159.5 -76q-113 0 -186 87t-73 222zM274 416q0 -74 33 -121t86 -47q45 0 79 46t34 120q0 66 -35 110.5t-84 44.5q-47 0 -80 -43t-33 -110z" />
<glyph unicode="&#xaa;" horiz-adv-x="2312" d="M147 463q0 182 111 287q121 113 352 112q242 0 369 -127q115 -115 115 -297q0 -197 -91.5 -317.5t-224.5 -120.5h-381q-131 0 -131 -98q0 -33 25.5 -51.5t64.5 -18.5h725v-160h-706q-104 0 -155.5 55.5t-51.5 149.5q0 188 209 189h274q283 0 283 356q0 143 -66 227 q-94 119 -313 119q-276 0 -326 -217l9 -6q72 106 182 106q94 0 153.5 -73.5t59.5 -169.5q0 -102 -67.5 -178t-159.5 -76q-113 0 -186 87t-73 222zM274 416q0 -74 33 -121t86 -47q45 0 79 46t34 120q0 66 -35 110.5t-84 44.5q-47 0 -80 -43t-33 -110zM1151 479q0 156 72 260 q84 123 239 123q82 0 153 -45t91 -96q25 51 94 92q82 49 172 49q147 0 239.5 -129t92.5 -336q0 -172 -96 -286q-119 -141 -357 -142q-174 0 -272 68.5t-98 171.5h61q8 -74 79 -116t194 -42q164 0 246.5 89t82.5 278q0 158 -67.5 254t-182.5 96q-57 0 -103 -44t-46 -97v-267 h-160v191q0 96 -46 156.5t-124 60.5q-92 0 -147.5 -86t-55.5 -221l7 -94h-62q-6 43 -6 112z" />
<glyph unicode="&#xab;" horiz-adv-x="1327" d="M172 -61q0 96 59.5 150t169.5 75q-111 39 -165 115q-63 88 -64 237q0 139 77 242.5t204 103.5q98 0 160.5 -68.5t62.5 -166.5q0 -117 -64.5 -183.5t-154.5 -66.5q-55 0 -107.5 31.5t-87.5 87.5q-4 -150 96 -222q113 -80 387 -79q270 0 383 79q100 72 101 222 q-37 -55 -91.5 -87t-107.5 -32q-90 0 -151 63q-68 70 -68 187q0 98 62.5 166.5t160.5 68.5q127 0 207 -106q74 -98 74 -240q0 -147 -64 -235q-55 -78 -166 -113q111 -25 166 -76q63 -59 64 -153q0 -121 -119 -195q-148 -92 -451 -92q-305 0 -452 92q-121 76 -121 195z M311 621q0 -72 35 -117t84 -45q51 0 85 43t34 125q0 66 -32 109.5t-79 43.5q-51 0 -89 -45.5t-38 -113.5zM319 -63q0 -86 112 -144.5t314 -58.5q199 0 310.5 58t111.5 145q0 82 -111.5 137t-310.5 55q-201 0 -313.5 -55.5t-112.5 -136.5zM938 627q0 -80 34 -124t85 -44 q49 0 84 45t35 117q0 66 -39 112.5t-88 46.5t-80 -42.5t-31 -110.5z" />
<glyph unicode="&#xac;" horiz-adv-x="2572" d="M172 -61q0 96 59.5 150t169.5 75q-111 39 -165 115q-63 88 -64 237q0 139 77 242.5t204 103.5q98 0 160.5 -68.5t62.5 -166.5q0 -117 -64.5 -183.5t-154.5 -66.5q-55 0 -107.5 31.5t-87.5 87.5q-4 -150 96 -222q113 -80 387 -79q270 0 383 79q100 72 101 222 q-37 -55 -91.5 -87t-107.5 -32q-90 0 -151 63q-68 70 -68 187q0 98 62.5 166.5t160.5 68.5q127 0 207 -106q74 -98 74 -240q0 -147 -64 -235q-55 -78 -166 -113q111 -25 166 -76q63 -59 64 -153q0 -121 -119 -195q-148 -92 -451 -92q-305 0 -452 92q-121 76 -121 195z M311 621q0 -72 35 -117t84 -45q51 0 85 43t34 125q0 66 -32 109.5t-79 43.5q-51 0 -89 -45.5t-38 -113.5zM319 -63q0 -86 112 -144.5t314 -58.5q199 0 310.5 58t111.5 145q0 82 -111.5 137t-310.5 55q-201 0 -313.5 -55.5t-112.5 -136.5zM938 627q0 -80 34 -124t85 -44 q49 0 84 45t35 117q0 66 -39 112.5t-88 46.5t-80 -42.5t-31 -110.5zM1427 479q0 156 72 260q84 123 240 123q82 0 152.5 -45t90.5 -96q25 51 95 92q82 49 172 49q147 0 239 -129t92 -336q0 -172 -96 -286q-119 -141 -356 -142q-174 0 -272.5 68.5t-98.5 171.5h62 q8 -74 78.5 -116t193.5 -42q164 0 247 89t83 278q0 158 -67.5 254t-182.5 96q-57 0 -103.5 -44t-46.5 -97v-267h-159v191q0 96 -46.5 156.5t-123.5 60.5q-92 0 -147.5 -86t-55.5 -221l6 -94h-61q-6 43 -7 112z" />
<glyph unicode="&#xad;" horiz-adv-x="2320" d="M147 274q0 121 82 203q94 94 256 94q143 0 236 -96q86 -90 86 -217q0 -49 -18.5 -103.5t-49.5 -88.5h478q-68 72 -109 145q-61 111 -61 213q0 205 127 330q111 109 245 108q102 0 168 -35.5t105 -103.5q35 63 105.5 101t152.5 38q154 0 261 -126t107 -312 q0 -102 -49 -195q-66 -125 -227 -247l-84 38q100 104 150.5 206t50.5 194q0 168 -91 266q-76 82 -159 82q-72 0 -126 -43t-54 -113v-612h-160v530q0 100 -44 156.5t-108 56.5q-104 0 -190 -90q-94 -98 -94 -247q0 -88 47 -179.5t133 -160.5v-66h-803v14q68 43 102.5 107.5 t34.5 130.5q0 80 -51 140.5t-141 60.5q-96 0 -159 -62.5t-63 -152.5q0 -61 24 -109.5t75 -99.5l-58 -47q-63 68 -95 143.5t-32 148.5z" />
<glyph unicode="&#xae;" horiz-adv-x="1951" d="M147 274q0 121 82 203q94 94 256 94q143 0 236 -96q86 -90 86 -217q0 -49 -18.5 -103.5t-49.5 -88.5h238l-2 67q0 328 110 514q127 215 388 215q217 0 352 -196q119 -174 119 -406q0 -174 -70 -332q-76 -170 -225 -301l-97 39q117 106 174.5 244.5t57.5 320.5 q0 225 -98.5 375t-258.5 150q-172 0 -281.5 -175t-109.5 -450v-65h275v579h159v-780q0 -104 -62 -171t-159 -67q-123 0 -195.5 99.5t-72.5 273.5h-471v14q68 43 102.5 107.5t34.5 130.5q0 80 -51 140.5t-141 60.5q-96 0 -159 -62.5t-63 -152.5q0 -61 24 -109.5t75 -99.5 l-58 -47q-63 68 -95 143.5t-32 148.5zM1042 0q12 -131 53.5 -192.5t96.5 -61.5q53 0 86 39t33 98v117h-269z" />
<glyph unicode="&#xaf;" horiz-adv-x="1933" d="M147 274q0 121 82 203q94 94 256 94q143 0 236 -96q86 -90 86 -217q0 -49 -18.5 -103.5t-49.5 -88.5h238l-2 67q0 328 110 514q127 215 388 215q174 0 276 -80q121 -94 121 -288q0 -68 -35 -131.5t-84 -86.5q92 -25 137 -124q37 -82 37 -197q0 -141 -65.5 -228 t-190.5 -87q-53 0 -100 18l-21 121q16 -8 39 -14.5t45 -6.5q57 0 89 60.5t32 156.5q0 109 -48 183.5t-120 74.5h-43v82h27q61 0 101 57.5t40 133.5q0 113 -74.5 181.5t-208.5 68.5q-172 0 -281.5 -175t-109.5 -450v-65h275v579h159v-780q0 -104 -62 -171t-159 -67 q-123 0 -195.5 99.5t-72.5 273.5h-471v14q68 43 102.5 107.5t34.5 130.5q0 80 -51 140.5t-141 60.5q-96 0 -159 -62.5t-63 -152.5q0 -61 24 -109.5t75 -99.5l-58 -47q-63 68 -95 143.5t-32 148.5zM1042 0q12 -131 53.5 -192.5t96.5 -61.5q53 0 86 39t33 98v117h-269z" />
<glyph unicode="&#xb0;" horiz-adv-x="2918" d="M147 336q0 207 115 358q127 168 324 168q195 0 325 -139q125 -131 125 -305q0 -135 -65 -250q-55 -96 -174 -199l-95 43q82 72 128.5 172.5t46.5 200.5q0 160 -97.5 265.5t-226.5 105.5q-143 0 -234.5 -110.5t-109.5 -274.5l6 -6q45 76 82 102q47 37 121 37 q92 0 159.5 -86t67.5 -189q0 -115 -62.5 -181t-160.5 -66q-135 0 -209 110q-66 98 -66 244zM242 254q0 -61 41 -113.5t98 -52.5q63 0 100 50t37 104q0 70 -36 119t-97 49t-102 -45t-41 -111zM1120 274q0 121 82 203q94 94 256 94q143 0 236 -96q86 -90 86 -217 q0 -49 -18.5 -103.5t-49.5 -88.5h238l-2 67q0 328 110 514q127 215 387 215q217 0 353 -196q119 -174 118 -406q0 -174 -69 -332q-76 -170 -226 -301l-96 39q117 106 174.5 244.5t57.5 320.5q0 225 -98.5 375t-258.5 150q-172 0 -281.5 -175t-109.5 -450v-65h275v579h159 v-780q0 -104 -62.5 -171t-158.5 -67q-123 0 -195.5 99.5t-72.5 273.5h-471v14q68 43 102.5 107.5t34.5 130.5q0 80 -51 140.5t-142 60.5q-96 0 -158.5 -62.5t-62.5 -152.5q0 -61 23.5 -109.5t75.5 -99.5l-58 -47q-63 68 -95 143.5t-32 148.5zM2015 0q12 -131 53 -192.5 t97 -61.5q53 0 86 39t33 98v117h-269z" />
<glyph unicode="&#xb1;" />
<glyph unicode="&#xb2;" horiz-adv-x="1144" d="M147 336q0 270 138.5 398t419.5 128q178 0 280 -74q94 -68 94 -167q0 -63 -28.5 -107.5t-87.5 -81.5q76 -18 125 -79.5t49 -129.5q0 -106 -76 -173.5t-197 -67.5q-59 0 -108 18l-25 115q49 -39 98 -39q66 0 107 39t41 90q0 72 -53 127q-59 61 -142 61h-71v66 q98 0 153.5 40t55.5 101q0 78 -69 123t-218 45q-184 0 -289 -90q-115 -98 -135 -307l6 -6q45 76 82 102q47 37 121 37q92 0 159.5 -86t67.5 -189q0 -115 -62.5 -181t-160.5 -66q-135 0 -209 110q-66 98 -66 244zM242 254q0 -61 41 -113.5t98 -52.5q63 0 100 50t37 104 q0 70 -36 119t-97 49t-102 -45t-41 -111z" />
<glyph unicode="&#xb3;" horiz-adv-x="1873" d="M147 336q0 270 138.5 398t419.5 128q178 0 280 -74q94 -68 94 -167q0 -63 -28.5 -107.5t-87.5 -81.5q76 -18 125 -79.5t49 -129.5q0 -106 -76 -173.5t-197 -67.5q-59 0 -108 18l-25 115q49 -39 98 -39q66 0 107 39t41 90q0 72 -53 127q-59 61 -142 61h-71v66 q98 0 153.5 40t55.5 101q0 78 -69 123t-218 45q-184 0 -289 -90q-115 -98 -135 -307l6 -6q45 76 82 102q47 37 121 37q92 0 159.5 -86t67.5 -189q0 -115 -62.5 -181t-160.5 -66q-135 0 -209 110q-66 98 -66 244zM242 254q0 -61 41 -113.5t98 -52.5q63 0 100 50t37 104 q0 70 -36 119t-97 49t-102 -45t-41 -111zM1202 313h62q41 -213 198 -213q106 0 176 94.5t70 241.5q0 135 -66.5 233.5t-160.5 98.5q-180 0 -217 -270h-62q0 154 64 250q76 115 225 114q170 0 270 -131q94 -123 94 -299q0 -188 -88 -313q-96 -137 -262 -137q-131 0 -213 79 q-90 88 -90 252z" />
<glyph unicode="&#xb4;" horiz-adv-x="2340" d="M147 336q0 270 138.5 398t419.5 128q178 0 280 -74q94 -68 94 -167q0 -63 -28.5 -107.5t-87.5 -81.5q76 -18 125 -79.5t49 -129.5q0 -106 -76 -173.5t-197 -67.5q-59 0 -108 18l-25 115q49 -39 98 -39q66 0 107 39t41 90q0 72 -53 127q-59 61 -142 61h-71v66 q98 0 153.5 40t55.5 101q0 78 -69 123t-218 45q-184 0 -289 -90q-115 -98 -135 -307l6 -6q45 76 82 102q47 37 121 37q92 0 159.5 -86t67.5 -189q0 -115 -62.5 -181t-160.5 -66q-135 0 -209 110q-66 98 -66 244zM242 254q0 -61 41 -113.5t98 -52.5q63 0 100 50t37 104 q0 70 -36 119t-97 49t-102 -45t-41 -111zM1202 479q0 156 72 260q84 123 239 123q82 0 153 -45t91 -96q25 51 94 92q82 49 172 49q147 0 239.5 -129t92.5 -336q0 -172 -96 -286q-119 -141 -356 -142q-174 0 -272.5 68.5t-98.5 171.5h61q8 -74 79 -116t194 -42 q164 0 246.5 89t82.5 278q0 158 -67.5 254t-181.5 96q-57 0 -103.5 -44t-46.5 -97v-267h-160v191q0 96 -46 156.5t-124 60.5q-92 0 -147 -86t-55 -221l6 -94h-62q-6 43 -6 112z" />
<glyph unicode="&#xb5;" horiz-adv-x="1501" d="M143 258q0 109 68 170t195 61h131q0 152 72.5 262.5t197.5 110.5q127 0 205 -101.5t94 -271.5h127q109 0 178 -59q82 -70 82 -203q0 -100 -64.5 -172.5t-158.5 -72.5q-27 0 -63 9t-58 25l-10 93q20 -14 36.5 -22.5t38.5 -8.5q55 0 97.5 43t42.5 129q0 82 -44 128t-122 46 h-76q0 -217 -96 -338q-84 -104 -199 -104q-74 0 -127 30q-63 37 -106 123q-29 -74 -82 -113.5t-107 -39.5q-90 0 -164 63q-88 76 -88 213zM283 268q0 -74 37.5 -133t95.5 -59q57 0 89 51t32 133v164h-66q-96 0 -142 -42t-46 -114zM598 424q0 -176 49 -262t129 -86 q96 0 146.5 95t50.5 253h-375zM598 489h375q0 111 -54.5 189t-138.5 78q-76 0 -125 -64q-57 -72 -57 -203z" />
<glyph unicode="&#xb6;" horiz-adv-x="1640" d="M147 336q0 205 115 358q125 168 320 168t327 -139q127 -133 127 -305q0 -86 -44 -183.5t-115 -168.5h591l-16 782h160l16 -848h-938v43q94 70 140.5 157t46.5 185q0 160 -97.5 265.5t-226.5 105.5q-143 0 -234.5 -110.5t-109.5 -274.5l6 -6q45 76 82 102q47 37 121 37 q92 0 159.5 -86t67.5 -189q0 -115 -62.5 -181t-160.5 -66q-135 0 -209 110q-66 98 -66 244zM242 254q0 -61 41 -113.5t98 -52.5q63 0 100 50t37 104q0 70 -36 119t-97 49t-102 -45t-41 -111z" />
<glyph unicode="&#xb7;" horiz-adv-x="1333" d="M147 397q0 137 77 265.5t200 199.5l41 -49q-121 -86 -176.5 -182t-55.5 -221q0 -127 75 -218.5t184 -91.5q76 0 126 71t50 218v137q0 152 98 248q90 88 215 88q147 0 245.5 -116.5t98.5 -292.5q0 -137 -75.5 -273.5t-190.5 -197.5l-49 47q229 145 229 397q0 143 -90 238 q-78 80 -164 79q-178 0 -178 -297v-116q0 -147 -90 -247.5t-209 -100.5q-154 0 -257.5 128t-103.5 287z" />
<glyph unicode="&#xb8;" horiz-adv-x="2211" d="M143 573q0 133 94.5 211t247.5 78q131 0 224.5 -93t93.5 -218q0 -45 -16.5 -90t-51.5 -86h244q0 150 23.5 234.5t87.5 150.5q102 102 268 102q113 0 182 -24q92 -33 156 -117q55 -72 73 -191q12 -80 13 -221h-643v-243h901l-17 782h160l17 -848h-1221v309h-477v15 q70 41 105.5 102t35.5 121q0 76 -58.5 136t-140.5 60q-90 0 -158.5 -62.5t-68.5 -141.5q0 -49 24.5 -99.5t84.5 -99.5l-58 -51q-61 68 -90 125q-35 72 -35 159zM1139 375h569q0 219 -72 307q-82 98 -217 98q-133 0 -206.5 -84t-73.5 -217v-104z" />
<glyph unicode="&#xb9;" horiz-adv-x="1601" d="M147 336q0 221 134.5 373.5t355.5 152.5q98 0 175 -40t118 -109q43 70 118.5 109.5t180.5 39.5q127 0 220 -69.5t93 -151.5q0 -66 -33.5 -120t-91.5 -85q78 -18 127 -71.5t49 -118.5q0 -102 -93 -183t-238 -81q-49 0 -93.5 5t-64.5 13l-25 111q84 -47 144 -48 q84 0 147.5 48.5t63.5 119.5q0 78 -51.5 121t-153.5 43h-119v66q123 0 197.5 39t74.5 112q0 63 -52 109.5t-136 46.5q-86 0 -150 -35q-78 -43 -77 -117v-616h-160v578q0 74 -66.5 126t-171.5 52q-156 0 -249 -104.5t-111 -280.5l6 -6q45 76 82 102q47 37 121 37 q92 0 159.5 -86t67.5 -189q0 -115 -62.5 -181t-160.5 -66q-135 0 -209 110q-66 98 -66 244zM242 254q0 -61 41 -113.5t98 -52.5q63 0 100 50t37 104q0 70 -36 119t-97 49t-102 -45t-41 -111z" />
<glyph unicode="&#xba;" horiz-adv-x="1464" d="M139 0v66h389q51 16 99 77q55 72 55 148q0 61 -42 111.5t-101 50.5q-66 0 -108 -48.5t-42 -117.5q0 -39 17 -66h-82q-20 41 -21 107q0 109 67.5 176t184.5 67q127 0 211 -88q76 -80 76 -184q0 -125 -97 -233h547l-16 782h160l16 -848h-1313z" />
<glyph unicode="&#xbb;" horiz-adv-x="1945" d="M139 0v66h389q51 16 99 77q55 72 55 148q0 61 -42 111.5t-101 50.5q-66 0 -108 -48.5t-42 -117.5q0 -39 17 -66h-82q-20 41 -21 107q0 109 67.5 176t184.5 67q127 0 211 -88q76 -80 76 -184q0 -125 -97 -233h439q-49 70 -84 160.5t-35 179.5q0 190 119 319 q127 137 321 137q180 0 310 -147q123 -141 122 -328q0 -172 -79.5 -288.5t-202.5 -116.5q-98 0 -174 89t-76 216q0 125 61 241q55 104 154 185q-16 12 -53 21t-68 9q-141 0 -244.5 -111.5t-103.5 -258.5q0 -102 57.5 -207t132.5 -152l-2 -14h-1200zM1479 319 q0 -86 48 -152.5t103 -66.5q66 0 113 73t47 187q0 96 -36 187.5t-79 124.5q-86 -70 -141 -165t-55 -188z" />
<glyph unicode="&#xbc;" horiz-adv-x="1372" d="M147 598q0 113 105.5 196t245.5 83q121 0 192.5 -29t114.5 -76q18 29 86 62q88 43 176 43q111 0 204 -74t93 -182q0 -127 -94 -203q-106 -86 -314 -86h-335q-139 0 -210 -37t-71 -100q0 -41 30.5 -68t98.5 -27q47 0 135 26t139 50q158 72 250 105q109 39 168 38 q80 0 136.5 -48t56.5 -119q0 -78 -56.5 -124t-132.5 -46q-78 0 -131 43t-53 108q0 47 25 82l-5 4q-45 -16 -124.5 -52t-160.5 -83t-161 -74.5t-147 -27.5q-98 0 -163 54t-65 120q0 250 400 250h348q106 0 191 60t85 140q0 90 -51 139.5t-143 49.5q-74 0 -123 -43t-49 -125 v-144h-160v123q0 94 -64.5 145.5t-154.5 51.5q-59 0 -113 -23q-39 -16 -70 -49l5 -6q10 6 26.5 11t38.5 5q53 0 101.5 -42t48.5 -111q0 -78 -50.5 -130t-105.5 -52q-84 0 -138.5 54t-54.5 138zM221 578q0 -43 23.5 -71t56.5 -28q37 0 59.5 26.5t22.5 72.5q0 41 -22.5 69.5 t-59.5 28.5q-35 0 -57.5 -29t-22.5 -69zM1055 164q0 -39 26.5 -63.5t69.5 -24.5q39 0 64.5 23.5t25.5 64.5t-24.5 65.5t-65.5 24.5q-43 0 -69.5 -24.5t-26.5 -65.5z" />
<glyph unicode="&#xbd;" horiz-adv-x="2404" d="M147 432q0 176 117 303t299 127q59 0 112.5 -12t108.5 -45q59 31 116.5 44t121.5 13q147 0 229 -92t82 -242l4 -163q0 -141 54.5 -215t142.5 -74q74 0 123 37q57 43 57 112v623h160v-531q0 -102 41 -159.5t110 -57.5q104 0 191 93q94 100 94 249q0 96 -49 185 q-59 104 -176 186l53 49q113 -86 185.5 -204.5t72.5 -233.5q0 -205 -127 -332q-111 -111 -246 -110q-100 0 -166.5 36.5t-105.5 106.5q-43 -63 -111.5 -103t-146.5 -40q-123 0 -209 101t-86 251l-4 176q0 113 -63.5 185.5t-167.5 72.5q-80 0 -111 -14q104 -86 160 -207 q47 -102 47 -201q0 -141 -76 -248q-84 -117 -217 -116q-106 0 -188 103t-82 251q0 113 57 222.5t143 174.5q-25 12 -62.5 17.5t-70.5 5.5q-123 0 -226.5 -105.5t-103.5 -244.5q0 -125 47.5 -224.5t135.5 -167.5l-64 -32q-94 76 -149.5 192.5t-55.5 257.5zM557 334 q0 -106 61 -174q55 -60 121 -60q78 0 129.5 73t51.5 175q0 106 -40 192.5t-128 161.5q-96 -78 -145.5 -175t-49.5 -193z" />
<glyph unicode="&#xbe;" horiz-adv-x="2134" d="M147 336q0 221 134.5 373.5t355.5 152.5q100 0 176 -40t117 -109q33 63 106.5 106t151.5 43q59 0 112.5 -12t108.5 -45q59 31 116.5 44t121.5 13q207 0 343 -134t136 -333q0 -102 -62.5 -213.5t-173.5 -199.5l-94 32q80 80 121 160q49 94 49 197q0 170 -111.5 289.5 t-267.5 119.5q-47 0 -66.5 -3t-47.5 -17q109 -92 163 -211q47 -102 47 -203q0 -141 -75 -248q-84 -117 -217 -116q-106 0 -188.5 103t-82.5 251q0 113 57.5 222.5t143.5 174.5q-29 12 -64.5 17.5t-68.5 5.5q-84 0 -152.5 -49.5t-68.5 -128.5v-578h-160v578q0 74 -66.5 126 t-171.5 52q-156 0 -249 -104.5t-111 -280.5l6 -6q45 76 82 102q47 37 121 37q92 0 159.5 -86t67.5 -189q0 -115 -62.5 -181t-160.5 -66q-135 0 -209 110q-66 98 -66 244zM242 254q0 -61 41 -113.5t98 -52.5q63 0 100 50t37 104q0 70 -36 119t-97 49t-102 -45t-41 -111z M1182 334q0 -106 61 -174q55 -60 121 -60q78 0 129 73t51 175q0 106 -40 192.5t-128 161.5q-96 -78 -145 -175t-49 -193z" />
<glyph unicode="&#xbf;" horiz-adv-x="937" d="M147 559q0 127 107.5 215t280.5 88q102 0 210.5 -40t167.5 -97l-51 -51q-55 49 -140 77.5t-169 28.5q-123 0 -201 -60.5t-78 -135.5q0 -41 40 -65.5t98 -24.5q37 0 86 2t108 6q160 0 240 -57.5t80 -163.5q0 -129 -123 -218q-115 -82 -266 -81q-84 0 -185.5 32.5 t-185.5 85.5l4 95q86 -53 181 -86t165 -33q121 0 201 63q70 55 69 117q0 57 -38.5 78.5t-155.5 21.5q-45 0 -111.5 -5t-83.5 -5q-113 0 -181.5 58.5t-68.5 154.5z" />
<glyph unicode="&#xc0;" horiz-adv-x="1028" d="M147 403q0 201 121 330t299 129q199 0 326 -129t127 -315q0 -180 -128 -308t-314 -128q-180 0 -305.5 120.5t-125.5 300.5zM209 424q0 -135 96 -235.5t232 -100.5q131 0 227 96.5t96 227.5q0 135 -94 233t-231 98q-135 0 -230.5 -93t-95.5 -226z" />
<glyph unicode="&#xc1;" horiz-adv-x="1900" d="M147 424q0 195 101.5 316.5t257.5 121.5q127 0 208 -87t81 -247v-176q0 -150 65 -217q57 -59 170 -59q74 0 123 37q57 43 57 112v623h160v-531q0 -102 41 -159.5t111 -57.5q104 0 190 93q94 100 94 249q0 96 -49 185q-59 104 -176 186l53 49q113 -86 185.5 -204.5 t72.5 -233.5q0 -205 -127 -332q-111 -111 -245 -110q-100 0 -167 36.5t-106 106.5q-43 -63 -111.5 -103t-146.5 -40q-133 0 -225 79q-109 94 -109 273v176q0 109 -43 171t-116 62q-100 0 -179 -90q-84 -98 -84 -247q0 -106 56.5 -208t159.5 -171l-43 -45q-111 66 -181 176 q-78 123 -78 266z" />
<glyph unicode="&#xc2;" horiz-adv-x="1984" d="M147 424q0 193 103.5 315.5t255.5 122.5q127 0 208 -87t81 -247v-176q0 -150 63 -217q55 -59 162 -59q72 0 126 43t54 112v617h160v-539q0 -104 82 -172q74 -61 174 -61q147 0 227 119q72 109 72 288h-2q-43 -74 -78 -102q-47 -37 -121 -37q-92 0 -159.5 86t-67.5 188 q0 113 61.5 178.5t161.5 65.5q135 0 205 -114q61 -102 61 -275q0 -225 -112.5 -358t-313.5 -133q-88 0 -168 34q-92 41 -133 113q-43 -70 -115.5 -108.5t-154.5 -38.5q-125 0 -215 79q-109 96 -109 273v176q0 109 -43 171t-116 62q-100 0 -179 -90q-84 -98 -84 -247 q0 -106 56.5 -208t159.5 -171l-43 -45q-111 66 -181 176q-78 123 -78 266zM1614 627q0 -82 36 -135.5t97 -53.5t102 45.5t41 108.5t-41 119.5t-98 56.5q-63 0 -100 -44t-37 -97z" />
<glyph unicode="&#xc3;" horiz-adv-x="2121" d="M147 336q0 221 134.5 373.5t355.5 152.5q98 0 176 -40t119 -109q43 68 111.5 108.5t148.5 40.5q111 0 179.5 -32.5t115.5 -106.5q35 63 105.5 101t152.5 38q154 0 261.5 -126t107.5 -312q0 -102 -50 -195q-66 -125 -227 -247l-84 38q100 104 150.5 206t50.5 194 q0 168 -90 266q-76 82 -160 82q-72 0 -126 -43t-54 -113v-612h-160v530q0 102 -65.5 164t-153.5 62q-78 0 -128 -39t-50 -99v-618h-160v578q0 74 -66.5 126t-171.5 52q-156 0 -249 -104.5t-111 -280.5l6 -6q45 76 82 102q47 37 121 37q92 0 159.5 -86t67.5 -189 q0 -115 -62.5 -181t-160.5 -66q-135 0 -209 110q-66 98 -66 244zM242 254q0 -61 41 -113.5t98 -52.5q63 0 100 50t37 104q0 70 -36 119t-97 49t-102 -45t-41 -111z" />
<glyph unicode="&#xc4;" horiz-adv-x="1509" d="M147 432q0 176 117 303t299 127q59 0 112.5 -12t108.5 -45q59 31 116.5 44t121.5 13q207 0 343 -134t136 -333q0 -102 -62.5 -213.5t-172.5 -199.5l-95 32q80 80 121 160q49 94 49 197q0 170 -111.5 289.5t-266.5 119.5q-76 0 -115 -20q109 -92 164 -211q47 -102 47 -203 q0 -141 -76 -248q-84 -117 -217 -116q-106 0 -188 103t-82 251q0 113 57 222.5t143 174.5q-25 12 -62.5 17.5t-70.5 5.5q-123 0 -226.5 -105.5t-103.5 -244.5q0 -125 47.5 -224.5t135.5 -167.5l-64 -32q-94 76 -149.5 192.5t-55.5 257.5zM557 334q0 -106 61 -174 q55 -60 121 -60q78 0 129.5 73t51.5 175q0 106 -40 192.5t-128 161.5q-96 -78 -145.5 -175t-49.5 -193z" />
<glyph unicode="&#xc5;" horiz-adv-x="1441" d="M172 0v848h160v-782h317v434q0 166 104.5 264t286.5 98q176 0 283 -110.5t107 -298.5v-453h-1258zM809 66h559v307q0 383 -291 383q-129 0 -198.5 -78t-69.5 -217v-395z" />
<glyph unicode="&#xc6;" horiz-adv-x="954" d="M147 346q0 252 136 391q121 125 307 125q121 0 213 -70.5t92 -150.5q0 -66 -34 -120t-91 -85q78 -18 127 -71.5t49 -118.5q0 -102 -93 -183t-239 -81q-45 0 -91 1t-66 13l-25 115q84 -47 143 -48q84 0 147.5 48.5t63.5 119.5q0 78 -51 121t-153 43h-119v66 q125 0 198.5 39t73.5 116q0 63 -53 107.5t-141 44.5q-145 0 -232.5 -118t-87.5 -314q0 -104 17 -189q8 -39 38 -147l-75 -18q-23 88 -35 168q-18 111 -19 196z" />
<glyph unicode="&#xc7;" horiz-adv-x="1427" d="M147 416q0 123 59.5 225t217.5 221l84 -39q-100 -106 -150.5 -208.5t-50.5 -194.5q0 -164 90 -262q76 -82 160 -82q74 0 123 37q57 43 57 112v623h160v-531q0 -102 41 -159.5t111 -57.5q104 0 190 93q94 100 94 249q0 96 -49 185q-59 104 -176 186l53 49 q113 -86 185.5 -204.5t72.5 -233.5q0 -205 -127 -332q-111 -111 -245 -110q-100 0 -167 36.5t-106 106.5q-43 -63 -111.5 -103t-146.5 -40q-154 0 -261.5 125.5t-107.5 308.5z" />
<glyph unicode="&#xc8;" horiz-adv-x="1427" d="M147 424q0 205 127 330q111 109 246 108q102 0 168 -35.5t105 -103.5q35 63 105.5 101t152.5 38q154 0 261 -126t107 -312q0 -102 -49 -195q-66 -125 -227 -247l-84 38q100 104 150.5 206t50.5 194q0 168 -91 266q-76 82 -159 82q-72 0 -126.5 -43t-54.5 -113v-612h-159 v530q0 100 -44 156.5t-108 56.5q-104 0 -190 -90q-94 -98 -95 -247q0 -94 50 -185q59 -106 176 -190l-53 -49q-113 90 -183 204q-76 123 -76 238z" />
<glyph unicode="&#xc9;" horiz-adv-x="1417" d="M147 274q0 121 82 203q94 94 256 94q143 0 236 -96q86 -90 86 -217q0 -49 -18.5 -103.5t-49.5 -88.5h506l-16 782h160l16 -848h-895v14q68 43 102.5 107.5t34.5 130.5q0 80 -51 140.5t-141 60.5q-96 0 -159 -62.5t-63 -152.5q0 -61 24 -109.5t75 -99.5l-58 -47 q-63 68 -95 143.5t-32 148.5z" />
<glyph unicode="&#xca;" />
<glyph unicode="&#xcb;" horiz-adv-x="1861" d="M147 274q0 121 82 203q94 94 256 94q143 0 236 -96q86 -90 86 -217q0 -49 -18.5 -103.5t-49.5 -88.5h330v434q0 166 104.5 264t286.5 98q176 0 282.5 -110.5t106.5 -298.5v-453h-1339v14q68 43 102.5 107.5t34.5 130.5q0 80 -51 140.5t-141 60.5q-96 0 -159 -62.5 t-63 -152.5q0 -61 24 -109.5t75 -99.5l-58 -47q-63 68 -95 143.5t-32 148.5zM1229 66h559v307q0 383 -291 383q-129 0 -198.5 -78t-69.5 -217v-395z" />
<glyph unicode="&#xcc;" horiz-adv-x="2021" d="M147 336q0 221 134.5 373.5t355.5 152.5q100 0 175 -40t120 -111q31 59 94 102q74 49 160 49q152 0 263.5 -128t111.5 -296q0 -90 -51.5 -189t-137.5 -175l4 -8h473l-16 782h160l16 -848h-813v47q90 76 143 164q61 102 62 211q0 150 -73 248t-187 98q-76 0 -125 -39 t-49 -113v-616h-160v578q0 74 -66.5 126t-171.5 52q-156 0 -249 -104.5t-111 -280.5l6 -6q45 76 82 102q47 37 121 37q92 0 159.5 -86t67.5 -189q0 -115 -62.5 -181t-160.5 -66q-135 0 -209 110q-66 98 -66 244zM242 254q0 -61 41 -113.5t98 -52.5q63 0 100 50t37 104 q0 70 -36 119t-97 49t-102 -45t-41 -111z" />
<glyph unicode="&#xcd;" horiz-adv-x="970" d="M147 348q0 260 127 393q115 121 316 121q150 0 256 -77.5t106 -186.5q0 -57 -42 -101t-109 -44q-47 0 -100.5 13t-69.5 13q-47 0 -84 -26.5t-37 -63.5q0 -74 145 -74q35 2 49.5 4.5t26.5 2.5h47q78 0 125 -33q59 -41 60 -121q0 -88 -74 -143.5t-207 -55.5q-76 0 -164 8.5 t-158 24.5l-18 100q74 -23 138.5 -31t133.5 -8q88 0 138.5 26t50.5 73q0 41 -36 59.5t-128 18.5q-139 0 -214 34.5t-75 110.5q0 74 47 121t129 47q39 0 104.5 -8t86.5 -8q31 0 53.5 24.5t22.5 54.5q0 61 -63.5 106.5t-162.5 45.5q-168 0 -257 -109.5t-89 -324.5 q0 -96 19 -187q6 -35 39 -147l-80 -18q-23 98 -37.5 197.5t-14.5 168.5z" />
<glyph unicode="&#xce;" horiz-adv-x="1007" d="M172 0v270q0 238 14.5 312.5t73.5 158.5q41 57 128 89t185 32q207 0 310 -114q113 -125 112 -398v-350h-823zM233 66q180 129 271 276q78 127 78 242q0 78 -43 125t-103 47q-94 0 -148.5 -88t-54.5 -262v-340zM416 66h481v288q0 227 -80 335t-231 108q135 -96 135 -244 q0 -113 -51 -203q-63 -113 -254 -284z" />
<glyph unicode="&#xcf;" horiz-adv-x="1525" d="M147 469q0 178 95 291q86 102 209 102q80 0 130 -38t97 -128q59 78 121 119q74 47 164 47q117 0 202.5 -100t85.5 -236q0 -154 -57 -262q-66 -123 -211 -207q10 -2 31.5 -6t34.5 -4q154 0 274.5 125t120.5 299q0 94 -41 186.5t-105 155.5l52 49q98 -123 133 -210t35 -185 q0 -182 -111 -320q-133 -166 -365 -165q-43 0 -90 7t-67 17q-25 -8 -84.5 -16t-102.5 -8q-225 0 -388 143t-163 344zM209 467q0 -94 40 -171t128 -144q61 -49 140 -77t163 -28q31 0 60.5 2t52.5 8q-74 39 -144 158q-82 139 -82 272q0 117 -47.5 186.5t-113.5 69.5 q-80 0 -138.5 -81.5t-58.5 -194.5zM694 479q0 -121 56.5 -230.5t146.5 -156.5q92 45 149.5 154.5t57.5 222.5q0 119 -57.5 203t-145.5 84q-94 0 -150.5 -87t-56.5 -190z" />
<glyph unicode="&#xd0;" />
<glyph unicode="&#xd1;" />
<glyph unicode="&#xd2;" />
<glyph unicode="&#xd3;" />
<glyph unicode="&#xd4;" />
<glyph unicode="&#xd5;" horiz-adv-x="1427" d="M147 403q0 180 107 310q123 150 338 149q164 0 278.5 -125t114.5 -301q0 -100 -40 -192t-120 -178h430l-16 782h160l16 -848h-797v39q88 66 147.5 158t59.5 182q0 139 -77.5 231t-208.5 92t-218.5 -85t-87.5 -228q0 -229 209 -356l-32 -51q-123 78 -193 190.5t-70 230.5z " />
<glyph unicode="&#xd6;" horiz-adv-x="1511" d="M147 397q0 137 77 265.5t200 199.5l41 -49q-121 -86 -176.5 -182t-55.5 -221q0 -127 75 -218.5t184 -91.5q76 0 126 71t50 218v137q0 154 99 245t243 91q238 0 372 -149q121 -133 121 -326q0 -172 -80 -288.5t-202 -116.5q-98 0 -174 89t-76 216q0 117 59.5 232.5 t171.5 205.5q-66 55 -168 55q-106 0 -166.5 -86.5t-60.5 -240.5v-123q0 -147 -90 -247.5t-209 -100.5q-154 0 -257.5 128t-103.5 287zM1044 319q0 -86 48.5 -152.5t103.5 -66.5q66 0 113 73t47 187q-1 220 -105 320q-100 -82 -153.5 -179.5t-53.5 -181.5z" />
<glyph unicode="&#xd7;" horiz-adv-x="1822" d="M147 274q0 121 82 203q94 94 256 94q143 0 236 -96q86 -90 86 -217q0 -49 -18.5 -103.5t-49.5 -88.5h369v276q-121 0 -213 86t-92 203q0 94 70.5 162.5t173.5 68.5q115 0 168 -74.5t53 -199.5v-174q129 35 280.5 175t188.5 259h57l16 -848h-1300v14q68 43 102.5 107.5 t34.5 130.5q0 80 -51 140.5t-141 60.5q-96 0 -159 -62.5t-63 -152.5q0 -61 24 -109.5t75 -99.5l-58 -47q-63 68 -95 143.5t-32 148.5zM901 616q0 -74 57.5 -137t149.5 -71v229q0 59 -29.5 89t-77.5 30q-43 0 -71.5 -39t-28.5 -101zM1268 66h381l-13 534q-66 -82 -178 -155.5 t-190 -90.5v-288z" />
<glyph unicode="&#xd8;" horiz-adv-x="1900" d="M147 424q0 205 127 330q111 109 246 108q102 0 168 -35.5t105 -103.5q35 63 105.5 101t152.5 38q125 0 215 -80q109 -96 108 -272v-176q0 -104 42 -169t106 -65q111 0 197.5 101.5t86.5 230.5q0 98 -66.5 211t-166.5 174l51 45q127 -98 197.5 -227t70.5 -254 q0 -145 -102 -264q-117 -135 -289 -135q-111 0 -184 84q-82 92 -82 249v177q0 150 -64 217q-55 59 -161 59q-72 0 -126.5 -43t-54.5 -113v-612h-159v530q0 100 -44 156.5t-108 56.5q-104 0 -190 -90q-94 -98 -95 -247q0 -94 50 -185q59 -106 176 -190l-53 -49 q-113 90 -183 204q-76 123 -76 238z" />
<glyph unicode="&#xd9;" horiz-adv-x="1898" d="M147 274q0 121 82 203q94 94 256 94q143 0 236 -96q86 -90 86 -217q0 -49 -18.5 -103.5t-49.5 -88.5h469q-61 59 -105 154t-44 190q0 178 112 309q123 143 308 143q176 0 293.5 -124t117.5 -302q0 -125 -67 -237q-76 -129 -226 -217l-53 77q186 125 187 320 q0 139 -78 231t-209 92q-129 0 -214 -85t-85 -228q0 -125 73.5 -233.5t180.5 -141.5v-14h-889v14q68 43 102.5 107.5t34.5 130.5q0 80 -51 140.5t-141 60.5q-96 0 -159 -62.5t-63 -152.5q0 -61 24 -109.5t75 -99.5l-58 -47q-63 68 -95 143.5t-32 148.5z" />
<glyph unicode="&#xda;" horiz-adv-x="1914" d="M147 403q0 180 107 310q123 150 338 149q164 0 278.5 -125t114.5 -301q0 -125 -67 -237q-76 -129 -226 -217l-53 77q186 125 186 320q0 139 -77.5 231t-208.5 92t-218.5 -85t-87.5 -228q0 -229 209 -356l-32 -51q-123 78 -193 190.5t-70 230.5zM1069 403q0 180 107 310 q123 150 337 149q164 0 279 -125t115 -301q0 -125 -68 -237q-76 -129 -225 -217l-53 77q186 125 186 320q0 139 -78 231t-209 92t-218 -85t-87 -228q0 -229 209 -356l-33 -51q-123 78 -192.5 190.5t-69.5 230.5z" />
<glyph unicode="&#xdb;" horiz-adv-x="1511" d="M147 397q0 137 77 265.5t200 199.5l41 -49q-121 -86 -176.5 -182t-55.5 -221q0 -127 75 -218.5t184 -91.5q76 0 126 71t50 218v137q0 154 99 245t243 91q238 0 372 -149q121 -133 121 -326q0 -172 -80 -288.5t-202 -116.5q-98 0 -174 89t-76 216q0 117 59.5 232.5 t171.5 205.5q-66 55 -168 55q-106 0 -166.5 -86.5t-60.5 -240.5v-123q0 -147 -90 -247.5t-209 -100.5q-154 0 -257.5 128t-103.5 287zM485 -340q0 80 49.5 163t129.5 140l43 -35q-72 -49 -110 -120.5t-38 -155.5q0 -72 49 -127t117 -55q59 0 96 50t37 150q0 139 73 216 t206 77q156 0 257 -103.5t101 -258.5q0 -104 -64.5 -175t-152.5 -71q-86 0 -136 59.5t-50 143.5t39.5 157.5t130.5 145.5q-14 14 -42 25.5t-59 11.5q-190 0 -190 -238q0 -133 -55.5 -209t-157.5 -76q-119 0 -196 84t-77 201zM1044 319q0 -86 48.5 -152.5t103.5 -66.5 q66 0 113 73t47 187q-1 220 -105 320q-100 -82 -153.5 -179.5t-53.5 -181.5zM1153 -440q0 -51 34 -87t73 -36q41 0 81.5 50t40.5 116q0 139 -79 217q-78 -53 -114 -117.5t-36 -142.5z" />
<glyph unicode="&#xdc;" horiz-adv-x="1404" d="M172 0v375q0 150 23.5 234.5t87.5 150.5q102 102 268 102q113 0 182 -24q92 -33 156 -117q55 -72 74 -191q12 -80 12 -221h-643v-243h901l-16 782h159l17 -848h-1221zM332 375h569q0 219 -72 307q-82 98 -217 98q-133 0 -206.5 -84t-73.5 -217v-104z" />
<glyph unicode="&#xdd;" horiz-adv-x="976" d="M147 563q0 168 136 314l71 -68q-27 -39 -47 -104.5t-20 -108.5q0 -113 76.5 -200t168.5 -87q-37 57 -60 137t-23 140q0 115 68.5 195.5t184.5 80.5q111 0 199 -86t88 -201q0 -102 -71 -186q-80 -94 -228 -133q6 -18 11.5 -42t5.5 -48q0 -86 -59.5 -141.5t-164.5 -55.5 q-70 0 -141.5 37t-114.5 94l49 50q47 -51 89.5 -75t78.5 -24q51 0 83 34t32 95q0 27 -10 64q-184 0 -293 95t-109 224zM588 561q0 -127 80 -248q104 23 169.5 92.5t65.5 172.5q0 68 -47 123t-108 55q-66 0 -113 -55.5t-47 -139.5z" />
<glyph unicode="&#xde;" horiz-adv-x="808" d="M147 313h62q41 -213 199 -213q106 0 175.5 94.5t69.5 241.5q0 135 -66.5 233.5t-160.5 98.5q-180 0 -217 -270h-62q0 154 64 250q76 115 225 114q170 0 271 -131q94 -123 94 -299q0 -188 -88 -313q-96 -137 -262 -137q-131 0 -213 79q-90 88 -91 252z" />
<glyph unicode="&#xdf;" horiz-adv-x="423" d="M-166 934q10 106 91 179t194 73q119 0 190 -58q86 -68 86 -200v-928h-159v887q0 193 -166 192q-72 0 -119 -41t-55 -104h-62z" />
<glyph unicode="&#xe0;" horiz-adv-x="641" d="M49 950q0 94 82 165t205 71q119 0 190 -58q86 -68 86 -200v-928h-159v887q0 121 -54 178q-43 47 -114 47q-23 0 -54 -10q139 -39 140 -166q0 -61 -45 -106.5t-109 -45.5q-70 0 -119 47.5t-49 118.5zM111 948q0 -41 26.5 -69.5t67.5 -28.5q45 0 74.5 27.5t29.5 70.5 q0 49 -42 82t-105 33q-29 -25 -40 -53.5t-11 -61.5z" />
<glyph unicode="&#xe1;" horiz-adv-x="530" d="M84 -229q0 92 50 154.5t130 78.5q49 111 76 208t27 169q0 137 -51.5 225t-168.5 125l13 131q281 -63 280 -395q0 -80 -27.5 -201t-82.5 -262q90 -16 139 -83.5t49 -164.5q0 -90 -61.5 -159.5t-155.5 -69.5q-96 0 -156.5 71.5t-60.5 172.5zM145 -229q0 -61 38 -105.5 t100 -44.5q57 0 97 44t40 106q0 61 -39 106t-98 45t-98.5 -45t-39.5 -106z" />
<glyph unicode="&#xe2;" horiz-adv-x="530" d="M84 -229q0 92 50 154.5t130 78.5q49 111 76 208t27 169q0 137 -51.5 225t-168.5 125l13 131q281 -63 280 -395q0 -80 -27.5 -201t-82.5 -262q90 -16 139 -83.5t49 -164.5q0 -90 -61.5 -159.5t-155.5 -69.5q-96 0 -156.5 71.5t-60.5 172.5zM145 -223q0 -63 39 -109.5 t99 -46.5q59 0 98 41t39 113q-80 -64 -141 -64q-29 0 -61 15.5t-73 50.5zM156 -170q53 -66 120 -66q39 0 72 18.5t60 51.5q-45 88 -125 88q-45 0 -79 -25.5t-48 -66.5z" />
<glyph unicode="&#xe3;" horiz-adv-x="606" d="M-6 -242q0 109 63.5 174.5t161.5 65.5q86 0 147.5 -71.5t61.5 -157.5q0 -100 -78 -160l2 -6q78 23 124 91t46 144q0 63 -35 123q-43 72 -153 170q-86 78 -133 220.5t-47 373.5q0 63 12 123h156q-8 -66 -9 -172q0 -201 27 -297t115 -238q76 -117 102.5 -182t26.5 -127 q0 -131 -103 -217q-94 -78 -221 -78q-125 0 -195.5 63.5t-70.5 157.5zM92 -248q0 -61 38 -105t99 -44q57 0 97.5 44t40.5 105t-39 106.5t-99 45.5q-59 0 -98 -45.5t-39 -106.5z" />
<glyph unicode="&#xe4;" horiz-adv-x="20" d="M-573 -231q0 74 75 110q57 29 133 29q53 0 80 -7t66 -34v131l110 2v-231q0 -72 -75 -125q-68 -47 -138 -47q-102 0 -172 41q-80 47 -79 131zM-518 -231q0 -41 44 -68t91 -27q63 0 101 16.5t61 41.5v45q0 18 -2 22q-10 18 -53 34.5t-74 16.5q-76 0 -122 -21t-46 -60z" />
<glyph unicode="&#xe5;" />
<glyph unicode="&#xe6;" horiz-adv-x="1044" d="M147 336q0 207 115 358q127 168 324 168q195 0 325 -139q125 -131 125 -305q0 -135 -65 -250q-55 -96 -174 -199l-95 43q82 72 128.5 172.5t46.5 200.5q0 160 -97.5 265.5t-226.5 105.5q-143 0 -234.5 -110.5t-109.5 -274.5l6 -6q45 76 82 102q47 37 121 37 q92 0 159.5 -86t67.5 -189q0 -115 -62.5 -181t-160.5 -66q-135 0 -209 110q-66 98 -66 244zM242 254q0 -61 41 -113.5t98 -52.5q63 0 100 50t37 104q0 70 -36 119t-97 49t-102 -45t-41 -111z" />
<glyph unicode="&#xe7;" horiz-adv-x="927" d="M147 428q0 184 123 309t316 125q147 0 240.5 -67.5t93.5 -161.5q0 -76 -50.5 -124t-119.5 -48q-82 0 -137.5 49t-55.5 113q0 88 84 159q-27 14 -63 15q-115 0 -203 -105.5t-88 -263.5q0 -166 88 -273.5t203 -107.5q37 0 63 14q-84 53 -84 148q0 63 53.5 112.5t139.5 49.5 q70 0 120 -46t50 -114q0 -92 -92.5 -160.5t-241.5 -68.5q-195 0 -317 125.5t-122 320.5zM655 205q0 -25 26 -68t58 -61q55 12 87 53t32 86q0 33 -32.5 61.5t-73.5 28.5t-69 -29.5t-28 -70.5zM655 639q0 -51 27 -82t70 -31q39 0 72.5 32t33.5 71q0 45 -30.5 85t-88.5 54 q-33 -18 -58.5 -59t-25.5 -70z" />
<glyph unicode="&#xe8;" horiz-adv-x="2015" d="M147 336q0 207 115 358q127 168 324 168q195 0 325 -139q125 -131 125 -305q0 -135 -65 -250q-55 -96 -174 -199l-95 43q82 72 128.5 172.5t46.5 200.5q0 160 -97.5 265.5t-226.5 105.5q-143 0 -234.5 -110.5t-109.5 -274.5l6 -6q45 76 82 102q47 37 121 37 q92 0 159.5 -86t67.5 -189q0 -115 -62.5 -181t-160.5 -66q-135 0 -209 110q-66 98 -66 244zM242 254q0 -61 41 -113.5t98 -52.5q63 0 100 50t37 104q0 70 -36 119t-97 49t-102 -45t-41 -111zM1130 336q0 207 115 358q127 168 324 168q195 0 325 -139q125 -131 125 -305 q0 -135 -65 -250q-55 -96 -174 -199l-94 43q82 72 128 172.5t46 200.5q0 160 -97.5 265.5t-226.5 105.5q-143 0 -234.5 -110.5t-109.5 -274.5l6 -6q45 76 82 102q47 37 121 37q92 0 159.5 -86t67.5 -189q0 -115 -62.5 -181t-160.5 -66q-135 0 -209 110q-66 98 -66 244z M1225 254q0 -61 41 -113.5t98 -52.5q63 0 100 50t37 104q0 70 -35.5 119t-97.5 49q-61 0 -102 -45t-41 -111z" />
<glyph unicode="&#xe9;" />
<glyph unicode="&#xea;" />
<glyph unicode="&#xeb;" />
<glyph unicode="&#xec;" horiz-adv-x="1308" d="M147 479q0 156 72 260q84 123 240 123q82 0 152.5 -45t90.5 -96q25 51 95 92q82 49 172 49q147 0 239 -129t92 -336q0 -172 -96 -286q-119 -141 -356 -142q-174 0 -272.5 68.5t-98.5 171.5h62q8 -74 78.5 -116t193.5 -42q164 0 247 89t83 278q0 158 -67.5 254t-182.5 96 q-57 0 -103.5 -44t-46.5 -97v-267h-159v191q0 96 -46.5 156.5t-123.5 60.5q-92 0 -147.5 -86t-55.5 -221l6 -94h-61q-6 43 -7 112z" />
<glyph unicode="&#xed;" horiz-adv-x="38" d="M-492 1202v33.5t7 40.5h149q-4 -12 -6 -38t-2 -40q0 -53 41 -92t98 -39q72 0 121 55.5t49 153.5h62q0 -154 -71 -234.5t-189 -80.5q-100 0 -177 63q-82 70 -82 178z" />
<glyph unicode="&#xee;" horiz-adv-x="20" d="M-1098 -453l930 453h160l2 -463h-1092v10zM-799 -389v-8h639l-2 319z" />
<glyph unicode="&#xef;" horiz-adv-x="20" d="M-1014 -319q0 139 102.5 239t258.5 100q133 0 205.5 -76.5t72.5 -215.5q0 -104 36 -152.5t97 -48.5q66 0 116 54t50 128q0 176 -147 277l43 34q80 -55 129 -138t49 -165q0 -113 -78 -198.5t-194 -85.5q-102 0 -157.5 75.5t-55.5 208.5q0 123 -47.5 180.5t-143.5 57.5 q-72 0 -117 -19.5t-100 -78.5l4 -4q12 6 32.5 11t39.5 5q84 0 144.5 -64.5t60.5 -171.5q0 -106 -64 -165q-49 -45 -108 -46q-90 0 -156 68q-72 74 -72 191zM-952 -317q0 -82 40 -130.5t115 -48.5q41 0 69 32t28 79q0 70 -43 108.5t-111 38.5q-37 0 -55.5 -5t-34.5 -17 q-8 -23 -8 -57z" />
<glyph unicode="&#xf0;" horiz-adv-x="20" d="M-1014 -319q0 139 102.5 239t258.5 100q133 0 205.5 -76.5t72.5 -215.5q0 -104 36 -152.5t97 -48.5q66 0 116 54t50 128q0 176 -147 277l43 34q80 -55 129 -138t49 -165q0 -113 -78 -198.5t-194 -85.5q-102 0 -157.5 75.5t-55.5 208.5q0 123 -47.5 180.5t-143.5 57.5 q-72 0 -117 -19.5t-100 -78.5l4 -4q12 6 32.5 11t39.5 5q84 0 144.5 -64.5t60.5 -171.5q0 -106 -64 -165q-49 -45 -108 -46q-90 0 -156 68q-72 74 -72 191zM-952 -317q0 -82 40 -130.5t115 -48.5q41 0 69 32t28 79q0 70 -43 108.5t-111 38.5q-37 0 -55.5 -5t-34.5 -17 q-8 -23 -8 -57z" />
<glyph unicode="&#xf1;" horiz-adv-x="20" d="M-756 -190q0 90 59.5 155.5t153.5 65.5q59 0 113 -31q61 31 121 31q104 0 175 -68.5t71 -171.5q0 -115 -121 -213l-47 19q41 39 63.5 83t22.5 97q0 88 -57.5 149.5t-135.5 61.5q-39 0 -59 -11q55 -49 81.5 -105t26.5 -108q0 -74 -41 -130t-110 -56q-53 0 -95.5 53.5 t-42.5 128.5q0 59 28 112.5t73 92.5q-18 8 -66 8q-61 0 -115.5 -54t-54.5 -124q0 -131 92 -198l-30 -19q-49 41 -77 100.5t-28 131.5zM-547 -240q0 -57 28.5 -89.5t65.5 -32.5q41 0 66 36.5t25 92.5q0 106 -84 182q-49 -41 -75 -91.5t-26 -97.5z" />
<glyph unicode="&#xf2;" horiz-adv-x="423" d="M-166 934q10 106 91 179t194 73q119 0 190 -58q86 -68 86 -200v-928h-159v887q0 193 -166 192q-72 0 -119 -41t-55 -104h-62z" />
<glyph unicode="&#xf3;" horiz-adv-x="530" d="M84 -229q0 92 50 154.5t130 78.5q49 111 76 208t27 169q0 137 -51.5 225t-168.5 125l13 131q281 -63 280 -395q0 -80 -27.5 -201t-82.5 -262q90 -16 139 -83.5t49 -164.5q0 -90 -61.5 -159.5t-155.5 -69.5q-96 0 -156.5 71.5t-60.5 172.5zM145 -229q0 -61 38 -105.5 t100 -44.5q57 0 97 44t40 106q0 61 -39 106t-98 45t-98.5 -45t-39.5 -106z" />
<glyph unicode="&#xf4;" horiz-adv-x="530" d="M84 -319l45 22q33 -53 66.5 -73.5t91.5 -20.5q55 0 94 47t39 119q-18 -29 -58 -49.5t-77 -20.5q-68 0 -116 44t-48 95q0 59 34.5 100.5t108.5 61.5q102 225 103 375q0 137 -51.5 225t-168.5 125l13 131q281 -63 280 -395q0 -80 -27.5 -201t-82.5 -262q92 -16 140 -83.5 t48 -170.5q0 -86 -66.5 -154.5t-156.5 -68.5q-129 0 -211 154zM195 -150q0 -33 27.5 -56t72.5 -23q37 0 68.5 18t44.5 43q-20 90 -109 90q-45 0 -74.5 -20.5t-29.5 -51.5z" />
<glyph unicode="&#xf5;" horiz-adv-x="530" d="M84 -229q0 98 60.5 166.5t150.5 68.5q106 0 168 -78q55 -70 55 -172q0 -90 -61.5 -159.5t-155.5 -69.5q-96 0 -156.5 71.5t-60.5 172.5zM145 -223q0 -63 39 -109.5t99 -46.5q59 0 98 41t39 113q-80 -64 -141 -64q-29 0 -61 15.5t-73 50.5zM156 -170q53 -66 120 -66 q39 0 72 18.5t60 51.5q-45 88 -125 88q-45 0 -79 -25.5t-48 -66.5z" />
<glyph unicode="&#xf6;" horiz-adv-x="530" d="M84 -229q0 100 58.5 167.5t154.5 67.5q104 0 166 -78q55 -70 55 -172q0 -90 -61.5 -159.5t-155.5 -69.5q-96 0 -156.5 71.5t-60.5 172.5zM145 -229q0 -61 38 -105.5t100 -44.5q57 0 97 44t40 106q0 61 -39 106t-98 45t-98.5 -45t-39.5 -106z" />
<glyph unicode="&#xf7;" horiz-adv-x="477" d="M-2 995q0 98 70 168t168 70t167.5 -69.5t69.5 -168.5q0 -98 -67.5 -167.5t-167.5 -69.5q-96 0 -168 69.5t-72 167.5zM63 995q0 -70 51.5 -121t123.5 -51t121 49.5t49 122.5q0 72 -50.5 122t-121.5 50q-72 0 -122.5 -50t-50.5 -122z" />
<glyph unicode="&#xf8;" horiz-adv-x="1028" d="M147 397q0 195 123 330t318 135q180 0 309 -147q123 -141 123 -328q0 -172 -80 -288.5t-203 -116.5q-98 0 -174 89t-76 216q0 125 62 241q55 104 153 185q-16 12 -53 21t-67 9q-143 0 -246 -112.5t-103 -257.5q0 -113 54 -209q47 -84 133 -152l-43 -43q-119 86 -180 224 q-49 109 -50 204zM561 319q0 -86 48 -152.5t104 -66.5q66 0 112.5 73t46.5 187q0 96 -35.5 187.5t-78.5 124.5q-86 -70 -141.5 -165t-55.5 -188z" />
<glyph unicode="&#xf9;" horiz-adv-x="993" d="M147 403q0 180 107 310q123 150 338 149q164 0 278.5 -125t114.5 -301q0 -125 -67 -237q-76 -129 -226 -217l-53 77q186 125 186 320q0 139 -77.5 231t-208.5 92t-218.5 -85t-87.5 -228q0 -229 209 -356l-32 -51q-123 78 -193 190.5t-70 230.5z" />
<glyph unicode="&#xfa;" />
<glyph unicode="&#xfb;" />
<glyph unicode="&#xfc;" />
<glyph unicode="&#xfd;" />
<glyph unicode="&#xfe;" />
<glyph unicode="&#xff;" />
<glyph unicode="&#x25fc;" horiz-adv-x="860" d="M0 0v860h860v-860h-860z" />
</font>
</defs>
</svg>
